<svg width="187px" id="Calque_1" data-name="Calque 1" xmlns="http://www.w3.org/2000/svg" viewBox="0 0 366.84 136.07"><defs><style>.cls-1{fill:#fff;}</style></defs><title>logo</title><path class="cls-1" d="M85.26,76.59A10.18,10.18,0,0,1,81,85.43q-4.28,3.06-12.57,3.06-7.56,0-11.86-2.68A12.29,12.29,0,0,1,51,77.68l8-1.31a7.07,7.07,0,0,0,3.15,4.54,12.63,12.63,0,0,0,6.5,1.41q8.63,0,8.63-5.25a4,4,0,0,0-1-2.76,7.5,7.5,0,0,0-2.79-1.81,46.56,46.56,0,0,0-6.91-1.76,62.48,62.48,0,0,1-6.14-1.66,17.28,17.28,0,0,1-3.13-1.48,9.2,9.2,0,0,1-2.37-2.05,8.9,8.9,0,0,1-1.52-2.82A11.62,11.62,0,0,1,52.85,59a9.39,9.39,0,0,1,4-8.16Q60.86,48,68.51,48q7.31,0,11,2.29t4.73,7.56l-8,1.09a6.17,6.17,0,0,0-2.5-3.82,9.56,9.56,0,0,0-5.4-1.28q-7.48,0-7.48,4.69a3.85,3.85,0,0,0,.8,2.51A6.14,6.14,0,0,0,64,62.71a40.33,40.33,0,0,0,6.33,1.72,50.57,50.57,0,0,1,8.11,2.22A12.61,12.61,0,0,1,82.33,69a9,9,0,0,1,2.18,3.24A11.62,11.62,0,0,1,85.26,76.59Z"/><path class="cls-1" d="M128.12,87.93V71.07H111V87.93h-8.23V48.6H111V64.26h17.14V48.6h8.23V87.93Z"/><path class="cls-1" d="M183.25,87.93l-3.49-10h-15l-3.49,10h-8.23L167.4,48.6h9.71L191.4,87.93Zm-11-33.27-.17.61q-.28,1-.67,2.29t-4.8,14.12h11.3L174,60.38l-1.2-3.8Z"/><path class="cls-1" d="M243.22,68a22.49,22.49,0,0,1-2.39,10.62,16.47,16.47,0,0,1-6.75,6.94,20.43,20.43,0,0,1-10,2.4H208.17V48.6H222.4q9.94,0,15.38,5T243.22,68Zm-8.29,0q0-6.34-3.29-9.67T222.23,55H216.4v26.6h7a10.52,10.52,0,0,0,8.43-3.66Q234.93,74.25,234.93,68Z"/><path class="cls-1" d="M299.11,68.08a23,23,0,0,1-2.43,10.8A16.74,16.74,0,0,1,289.74,86a21.67,21.67,0,0,1-10.55,2.47q-9.27,0-14.53-5.46T259.4,68.08q0-9.46,5.25-14.76t14.6-5.3q9.35,0,14.61,5.36T299.11,68.08Zm-8.4,0q0-6.36-3-10a10.41,10.41,0,0,0-8.46-3.61q-5.53,0-8.54,3.59t-3,10q0,6.47,3.08,10.2A10.34,10.34,0,0,0,279.19,82q5.53,0,8.53-3.63T290.71,68.08Z"/><path class="cls-1" d="M356.68,87.93h-9.77l-5.33-22.75q-1-4-1.65-8.4-.67,3.66-1.09,5.57T332.9,87.93h-9.77L313,48.6h8.35L327,74l1.28,6.14q.78-3.88,1.52-7.41t5.57-24.13h9.21l5,20.93q.59,2.34,2,10.61l.7-3.24,1.48-6.42L358.5,48.6h8.35Z"/><path class="cls-1" d="M68.81,108.86a40.53,40.53,0,0,1-35-32.51c0-.12-.05-.24-.07-.36a39.71,39.71,0,0,1,2.86-23.93c0-.11.09-.21.14-.31A40.54,40.54,0,0,1,99.47,37.4a44.24,44.24,0,0,0-7-5.86A43.37,43.37,0,0,0,77,24.94a44,44,0,0,0-17.43-.13,43.48,43.48,0,0,0-16.5,7,43.94,43.94,0,0,0-12.48,13.4,45.06,45.06,0,0,0-3.92,8.43,47.61,47.61,0,0,0-2.08,9.07,47.07,47.07,0,0,0-.13,9.3,44,44,0,0,0,5.45,17.62,42.65,42.65,0,0,0,5.3,7.49A43.71,43.71,0,0,0,91.47,105,40.32,40.32,0,0,1,68.81,108.86Z"/><rect class="cls-1" x="55.11" y="0.45" width="6.92" height="18.44" transform="matrix(-0.99, 0.17, -0.17, -0.99, 117.94, 9.39)"/><rect class="cls-1" x="19.88" y="20.49" width="6.92" height="18.44" transform="translate(61.1 31.17) rotate(130.36)"/><rect class="cls-1" x="5.78" y="58.5" width="6.92" height="18.44" transform="translate(77.01 58.9) rotate(90.36)"/><rect class="cls-1" x="19.4" y="96.67" width="6.92" height="18.44" transform="translate(89.82 20.73) rotate(50.36)"/><rect class="cls-1" x="54.38" y="117.16" width="6.92" height="18.44" transform="translate(23.67 -8.34) rotate(10.36)"/><rect class="cls-1" x="76.76" y="7.07" width="4.53" height="12.07" transform="translate(153.91 41.56) rotate(-168.62)"/><rect class="cls-1" x="38.84" y="12.82" width="4.53" height="12.07" transform="translate(86.21 15.72) rotate(151.38)"/><rect class="cls-1" x="13.48" y="41.6" width="4.53" height="12.07" transform="translate(65.84 50.34) rotate(111.38)"/><rect class="cls-1" x="12.55" y="79.94" width="4.53" height="12.07" transform="translate(91.57 44.49) rotate(71.38)"/><rect class="cls-1" x="36.49" y="109.91" width="4.53" height="12.07" transform="translate(66.05 -3.22) rotate(31.38)"/><rect class="cls-1" x="74.09" y="117.48" width="4.53" height="12.07" transform="translate(-17.64 12.83) rotate(-8.62)"/></svg>