<svg id="Calque_1" data-name="Calque 1" xmlns="http://www.w3.org/2000/svg" viewBox="0 0 140 120"><defs><style>.cls-1{fill:#6e94af;}.cls-1,.cls-7,.cls-8{opacity:0;}.cls-2{fill:#fff;}.cls-3{fill:#35a858;}.cls-4,.cls-8{fill:#203e59;}.cls-5{fill:#f8c947;}.cls-6,.cls-7{fill:#0b1a2a;}.cls-9{fill:#da3a34;}.cls-10{fill:red;}</style></defs><title>spritesheet2</title><rect class="cls-1" x="100" width="20" height="20"/><path class="cls-2" d="M119.56,17.38l-4.13-4.12a8.22,8.22,0,0,0,1.49-4.8,8.44,8.44,0,0,0-.66-3.29,8.6,8.6,0,0,0-1.81-2.7,8.58,8.58,0,0,0-6-2.47,8.27,8.27,0,0,0-3.29.67,8.27,8.27,0,0,0-4.5,4.5,8.41,8.41,0,0,0,0,6.58,8.3,8.3,0,0,0,1.8,2.7,8.6,8.6,0,0,0,2.7,1.81,8.44,8.44,0,0,0,3.29.66,8.22,8.22,0,0,0,4.8-1.49l4.12,4.11a1.41,1.41,0,0,0,1.08.46A1.57,1.57,0,0,0,120,18.46a1.5,1.5,0,0,0-.44-1.08Zm-7.29-5.11a5.39,5.39,0,0,1-9.19-3.81,5.15,5.15,0,0,1,1.58-3.8,5.37,5.37,0,0,1,7.61,0,5.19,5.19,0,0,1,1.58,3.8,5.23,5.23,0,0,1-1.58,3.81Zm0,0"/><rect class="cls-1" x="40" width="20" height="20"/><path class="cls-2" d="M55,2a3,3,0,0,1,3,3V15a3,3,0,0,1-3,3H45a3,3,0,0,1-3-3V5a3,3,0,0,1,3-3Zm0-2H45a5,5,0,0,0-5,5V15a5,5,0,0,0,5,5H55a5,5,0,0,0,5-5V5a5,5,0,0,0-5-5Z"/><polygon class="cls-2" points="54.76 9.05 45.24 9.05 45.24 10.95 54.76 10.95 54.76 9.05 54.76 9.05"/><path class="cls-1" d="M60,0V20H80V0Zm5.24,11V9h3.81V5.24H71V9h3.81V11H71v3.81h-1.9V11Z"/><path class="cls-2" d="M75,0H65a5,5,0,0,0-5,5V15a5,5,0,0,0,5,5H75a5,5,0,0,0,5-5V5A5,5,0,0,0,75,0Zm3,15a3,3,0,0,1-3,3H65a3,3,0,0,1-3-3V5a3,3,0,0,1,3-3H75a3,3,0,0,1,3,3Z"/><polygon class="cls-2" points="74.76 9.04 74.76 10.95 70.95 10.95 70.95 14.76 69.05 14.76 69.05 10.95 65.24 10.95 65.24 9.04 69.05 9.04 69.05 5.24 70.95 5.24 70.95 9.04 74.76 9.04"/><rect class="cls-1" width="20" height="20"/><path class="cls-3" d="M.22,2.07A.7.7,0,0,0,0,2.59V14.44a1,1,0,0,0,.05.31A.48.48,0,0,0,.2,15l.19.13a.75.75,0,0,0,.28.07l.26,0h.55a2.86,2.86,0,0,0,.87,2.1,2.86,2.86,0,0,0,2.09.87,2.86,2.86,0,0,0,2.1-.87,2.86,2.86,0,0,0,.87-2.1h4.44a3,3,0,0,0,5.06,2.1,2.86,2.86,0,0,0,.87-2.1h1.29l.26,0a.75.75,0,0,0,.28-.07L19.8,15a.48.48,0,0,0,.15-.22,1,1,0,0,0,.05-.31.7.7,0,0,0-.22-.52.74.74,0,0,0-.52-.22V10c0-.06,0-.2,0-.41V9.16c0-.09,0-.22,0-.4a1.73,1.73,0,0,0-.08-.43A2.11,2.11,0,0,0,19,8a1.46,1.46,0,0,0-.26-.34L16.45,5.34A1.7,1.7,0,0,0,15.86,5a1.6,1.6,0,0,0-.67-.15H13.33V2.59a.7.7,0,0,0-.22-.52.73.73,0,0,0-.52-.22H.74a.74.74,0,0,0-.52.22ZM13.77,16.23a1.46,1.46,0,1,1,1.05.44,1.45,1.45,0,0,1-1.05-.44ZM13.33,6.3h1.83a.35.35,0,0,1,.26.1l2.25,2.26a.34.34,0,0,1,.11.25v.35H13.33ZM3.4,16.23a1.48,1.48,0,1,1,2.09-2.09,1.49,1.49,0,0,1-1,2.53,1.45,1.45,0,0,1-1-.44Zm0,0"/><rect class="cls-1" x="80" width="20" height="20"/><path class="cls-2" d="M99.88,7.2a.38.38,0,0,0-.3-.12H93.85a2.81,2.81,0,0,0,2.07-.85,2.81,2.81,0,0,0,.85-2.06,2.81,2.81,0,0,0-.85-2.07,2.81,2.81,0,0,0-2.07-.85,2.63,2.63,0,0,0-2.18,1L90,4.4,88.33,2.25a2.63,2.63,0,0,0-2.18-1,2.81,2.81,0,0,0-2.07.85,2.81,2.81,0,0,0-.85,2.07,2.81,2.81,0,0,0,.85,2.06,2.81,2.81,0,0,0,2.07.85H80.42A.41.41,0,0,0,80,7.5v4.17a.41.41,0,0,0,.12.3.44.44,0,0,0,.3.11h1.25V17.5a1.25,1.25,0,0,0,1.25,1.25H97.08a1.25,1.25,0,0,0,1.25-1.25V12.08h1.25a.39.39,0,0,0,.42-.41V7.5a.41.41,0,0,0-.12-.3ZM93,3.32a1.09,1.09,0,0,1,.89-.4A1.23,1.23,0,0,1,95.1,4.17a1.21,1.21,0,0,1-.36.88,1.19,1.19,0,0,1-.89.37H91.33Zm-6.81,2.1a1.19,1.19,0,0,1-.89-.37,1.21,1.21,0,0,1-.36-.88,1.23,1.23,0,0,1,1.25-1.25,1.09,1.09,0,0,1,.89.4l1.64,2.1Zm5.93,4.16v6.83a.59.59,0,0,1-.23.5,1,1,0,0,1-.6.17h-2.5a1,1,0,0,1-.6-.17.59.59,0,0,1-.23-.5V7.08h4.16Zm0,0"/><rect class="cls-1" x="120" width="20" height="20"/><path class="cls-2" d="M139.77,3.33a.74.74,0,0,0-.54-.23H124.8l-.06-.31c0-.14,0-.26-.06-.35s-.05-.19-.09-.32a1.11,1.11,0,0,0-.16-.29.65.65,0,0,0-.24-.19.77.77,0,0,0-.34-.08h-3.08a.74.74,0,0,0-.54.23.75.75,0,0,0,0,1.08.74.74,0,0,0,.54.23h2.45L125.35,13l-.25.46c-.15.27-.26.51-.35.71a1.33,1.33,0,0,0-.13.48.73.73,0,0,0,.22.54.78.78,0,0,0,.54.23h12.31a.77.77,0,0,0,0-1.54H126.63a2.12,2.12,0,0,0,.29-.77,1.22,1.22,0,0,0,0-.26c0-.1,0-.21-.07-.32a1.25,1.25,0,0,1,0-.26l12.54-1.47A.75.75,0,0,0,140,10V3.87a.74.74,0,0,0-.23-.54Zm0,0"/><path class="cls-2" d="M124.64,16.92a1.52,1.52,0,0,0,1.51,1.52,1.54,1.54,0,0,0,1.52-1.52,1.52,1.52,0,0,0-1.52-1.51,1.5,1.5,0,0,0-1.51,1.51Zm0,0"/><path class="cls-2" d="M135.41,16.92a1.52,1.52,0,0,0,1.51,1.52,1.54,1.54,0,0,0,1.52-1.52,1.52,1.52,0,0,0-2.59-1.07,1.5,1.5,0,0,0-.44,1.07Zm0,0"/><rect class="cls-1" x="20" width="20" height="20"/><path class="cls-2" d="M38,10.71V15a3,3,0,0,1-3,3H25a3,3,0,0,1-3-3V5a3,3,0,0,1,3-3H35a2.93,2.93,0,0,1,1.75.57l1.42-1.42A5,5,0,0,0,35,0H25a5,5,0,0,0-5,5V15a5,5,0,0,0,5,5H35a5,5,0,0,0,5-5V8.71Z"/><path class="cls-2" d="M39.73,5.41,38.49,4.18a.85.85,0,0,0-.63-.27.87.87,0,0,0-.64.27L30,11.44,27,8.49a.87.87,0,0,0-.64-.27.89.89,0,0,0-.64.27L24.5,9.72a.89.89,0,0,0,0,1.28l4.82,4.82a.89.89,0,0,0,.64.27.87.87,0,0,0,.64-.27l9.13-9.13A.87.87,0,0,0,40,6.05a.89.89,0,0,0-.27-.64Zm0,0"/><rect class="cls-1" x="100" y="20" width="20" height="20"/><path class="cls-4" d="M119.56,37.38l-4.13-4.12a8.22,8.22,0,0,0,1.49-4.8,8.44,8.44,0,0,0-.66-3.29,8.6,8.6,0,0,0-1.81-2.7,8.58,8.58,0,0,0-6-2.47,8.27,8.27,0,0,0-3.29.67,8.27,8.27,0,0,0-4.5,4.5,8.52,8.52,0,0,0,1.8,9.28,8.6,8.6,0,0,0,2.7,1.81,8.44,8.44,0,0,0,3.29.66,8.22,8.22,0,0,0,4.8-1.49l4.12,4.11a1.41,1.41,0,0,0,1.08.46A1.57,1.57,0,0,0,120,38.46a1.5,1.5,0,0,0-.44-1.08Zm-7.29-5.11a5.39,5.39,0,0,1-9.19-3.81,5.39,5.39,0,0,1,10.77,0,5.23,5.23,0,0,1-1.58,3.81Zm0,0"/><rect class="cls-1" x="40" y="20" width="20" height="20"/><path class="cls-4" d="M55,22a3,3,0,0,1,3,3V35a3,3,0,0,1-3,3H45a3,3,0,0,1-3-3V25a3,3,0,0,1,3-3Zm0-2H45a5,5,0,0,0-5,5V35a5,5,0,0,0,5,5H55a5,5,0,0,0,5-5V25a5,5,0,0,0-5-5Z"/><polygon class="cls-4" points="54.76 29.05 45.24 29.05 45.24 30.95 54.76 30.95 54.76 29.05 54.76 29.05"/><rect class="cls-1" y="20" width="20" height="20"/><path class="cls-5" d="M.22,22.07a.7.7,0,0,0-.22.52V34.44a1,1,0,0,0,.05.31A.48.48,0,0,0,.2,35l.19.13a.75.75,0,0,0,.28.07l.26,0h.55a2.86,2.86,0,0,0,.87,2.1,2.86,2.86,0,0,0,2.09.87,2.86,2.86,0,0,0,2.1-.87,2.86,2.86,0,0,0,.87-2.1h4.44a3,3,0,0,0,5.06,2.1,2.86,2.86,0,0,0,.87-2.1h1.29l.26,0a.75.75,0,0,0,.28-.07L19.8,35a.48.48,0,0,0,.15-.22,1,1,0,0,0,.05-.31.7.7,0,0,0-.22-.52.74.74,0,0,0-.52-.22V30c0-.06,0-.2,0-.41v-.43c0-.09,0-.22,0-.4a1.73,1.73,0,0,0-.08-.43A2.11,2.11,0,0,0,19,28a1.46,1.46,0,0,0-.26-.34l-2.29-2.29a1.7,1.7,0,0,0-.59-.37,1.6,1.6,0,0,0-.67-.15H13.33V22.59a.7.7,0,0,0-.22-.52.73.73,0,0,0-.52-.22H.74a.74.74,0,0,0-.52.22ZM13.77,36.23a1.46,1.46,0,1,1,1.05.44,1.45,1.45,0,0,1-1.05-.44Zm-.44-9.93h1.83a.35.35,0,0,1,.26.1l2.25,2.26a.34.34,0,0,1,.11.25v.35H13.33ZM3.4,36.23a1.48,1.48,0,1,1,2.09-2.09,1.49,1.49,0,0,1-1,2.53,1.45,1.45,0,0,1-1-.44Zm0,0"/><rect class="cls-1" x="80" y="20" width="20" height="20"/><path class="cls-4" d="M99.88,27.2a.38.38,0,0,0-.3-.12H93.85a2.92,2.92,0,1,0,0-5.83,2.63,2.63,0,0,0-2.18,1L90,24.4l-1.67-2.15a2.63,2.63,0,0,0-2.18-1,2.92,2.92,0,1,0,0,5.83H80.42a.41.41,0,0,0-.42.42v4.17a.41.41,0,0,0,.12.3.44.44,0,0,0,.3.11h1.25V37.5a1.25,1.25,0,0,0,1.25,1.25H97.08a1.25,1.25,0,0,0,1.25-1.25V32.08h1.25a.39.39,0,0,0,.42-.41V27.5a.41.41,0,0,0-.12-.3ZM93,23.32a1.09,1.09,0,0,1,.89-.4,1.25,1.25,0,0,1,.89,2.13,1.19,1.19,0,0,1-.89.37H91.33Zm-6.81,2.1a1.19,1.19,0,0,1-.89-.37,1.25,1.25,0,0,1,.89-2.13,1.09,1.09,0,0,1,.89.4l1.64,2.1Zm5.93,4.16v6.83a.59.59,0,0,1-.23.5,1,1,0,0,1-.6.17h-2.5a1,1,0,0,1-.6-.17.59.59,0,0,1-.23-.5V27.08h4.16Zm0,0"/><rect class="cls-1" x="120" y="20" width="20" height="20"/><path class="cls-4" d="M139.77,23.33a.74.74,0,0,0-.54-.23H124.8l-.06-.31c0-.14,0-.26-.06-.35s-.05-.19-.09-.32a1.11,1.11,0,0,0-.16-.29.65.65,0,0,0-.24-.19.77.77,0,0,0-.34-.08h-3.08a.77.77,0,0,0,0,1.54h2.45L125.35,33l-.25.46c-.15.27-.26.51-.35.71a1.33,1.33,0,0,0-.13.48.73.73,0,0,0,.22.54.78.78,0,0,0,.54.23h12.31a.77.77,0,0,0,0-1.54H126.63a2.12,2.12,0,0,0,.29-.77,1.22,1.22,0,0,0,0-.26c0-.1,0-.21-.07-.32a1.25,1.25,0,0,1,0-.26l12.54-1.47A.75.75,0,0,0,140,30V23.87a.74.74,0,0,0-.23-.54Zm0,0"/><path class="cls-4" d="M124.64,36.92a1.52,1.52,0,0,0,1.51,1.52,1.54,1.54,0,0,0,1.52-1.52,1.52,1.52,0,0,0-1.52-1.51,1.5,1.5,0,0,0-1.51,1.51Zm0,0"/><path class="cls-4" d="M135.41,36.92a1.52,1.52,0,0,0,1.51,1.52,1.54,1.54,0,0,0,1.52-1.52,1.52,1.52,0,0,0-2.59-1.07,1.5,1.5,0,0,0-.44,1.07Zm0,0"/><rect class="cls-1" x="20" y="20" width="20" height="20"/><path class="cls-4" d="M38,30.71V35a3,3,0,0,1-3,3H25a3,3,0,0,1-3-3V25a3,3,0,0,1,3-3H35a2.93,2.93,0,0,1,1.75.57l1.42-1.42A5,5,0,0,0,35,20H25a5,5,0,0,0-5,5V35a5,5,0,0,0,5,5H35a5,5,0,0,0,5-5V28.71Z"/><path class="cls-4" d="M39.73,25.41l-1.24-1.23a.85.85,0,0,0-.63-.27.87.87,0,0,0-.64.27L30,31.44l-2.95-3a.87.87,0,0,0-.64-.27.89.89,0,0,0-.64.27L24.5,29.72a.89.89,0,0,0,0,1.28l4.82,4.82a.89.89,0,0,0,.64.27.87.87,0,0,0,.64-.27l9.13-9.13a.87.87,0,0,0,.27-.64.89.89,0,0,0-.27-.64Zm0,0"/><rect class="cls-1" x="100" y="40" width="20" height="20"/><path class="cls-6" d="M119.56,57.38l-4.13-4.12a8.22,8.22,0,0,0,1.49-4.8,8.44,8.44,0,0,0-.66-3.29,8.6,8.6,0,0,0-1.81-2.7,8.58,8.58,0,0,0-6-2.47,8.27,8.27,0,0,0-3.29.67,8.27,8.27,0,0,0-4.5,4.5,8.52,8.52,0,0,0,1.8,9.28,8.6,8.6,0,0,0,2.7,1.81,8.44,8.44,0,0,0,3.29.66,8.22,8.22,0,0,0,4.8-1.49l4.12,4.11a1.41,1.41,0,0,0,1.08.46A1.57,1.57,0,0,0,120,58.46a1.5,1.5,0,0,0-.44-1.08Zm-7.29-5.11a5.39,5.39,0,0,1-9.19-3.81,5.39,5.39,0,0,1,10.77,0,5.23,5.23,0,0,1-1.58,3.81Zm0,0"/><rect class="cls-1" x="40" y="40" width="20" height="20"/><path class="cls-6" d="M55,42a3,3,0,0,1,3,3V55a3,3,0,0,1-3,3H45a3,3,0,0,1-3-3V45a3,3,0,0,1,3-3Zm0-2H45a5,5,0,0,0-5,5V55a5,5,0,0,0,5,5H55a5,5,0,0,0,5-5V45a5,5,0,0,0-5-5Z"/><polygon class="cls-6" points="54.76 49.05 45.24 49.05 45.24 50.95 54.76 50.95 54.76 49.05 54.76 49.05"/><path class="cls-1" d="M60,40V60H80V40Zm5.24,11V49h3.81v-3.8H71V49h3.81V51H71v3.81h-1.9V51Z"/><path class="cls-6" d="M75,40H65a5,5,0,0,0-5,5V55a5,5,0,0,0,5,5H75a5,5,0,0,0,5-5V45A5,5,0,0,0,75,40Zm3,15a3,3,0,0,1-3,3H65a3,3,0,0,1-3-3V45a3,3,0,0,1,3-3H75a3,3,0,0,1,3,3Z"/><polygon class="cls-6" points="74.76 49.04 74.76 50.95 70.95 50.95 70.95 54.76 69.05 54.76 69.05 50.95 65.24 50.95 65.24 49.04 69.05 49.04 69.05 45.24 70.95 45.24 70.95 49.04 74.76 49.04"/><path class="cls-1" d="M60,20V40H80V20Zm5.24,11V29h3.81v-3.8H71V29h3.81V31H71v3.81h-1.9V31Z"/><path class="cls-4" d="M75,20H65a5,5,0,0,0-5,5V35a5,5,0,0,0,5,5H75a5,5,0,0,0,5-5V25A5,5,0,0,0,75,20Zm3,15a3,3,0,0,1-3,3H65a3,3,0,0,1-3-3V25a3,3,0,0,1,3-3H75a3,3,0,0,1,3,3Z"/><polygon class="cls-4" points="74.76 29.04 74.76 30.95 70.95 30.95 70.95 34.76 69.05 34.76 69.05 30.95 65.24 30.95 65.24 29.04 69.05 29.04 69.05 25.24 70.95 25.24 70.95 29.04 74.76 29.04"/><rect class="cls-1" y="40" width="20" height="20"/><rect class="cls-1" y="60" width="20" height="20"/><rect class="cls-7" x="20" y="60" width="20" height="20"/><rect class="cls-7" x="20" y="80" width="20" height="20"/><rect class="cls-7" x="20" y="100" width="20" height="20"/><rect class="cls-1" y="80" width="20" height="20"/><rect class="cls-8" x="60" y="60" width="20" height="20"/><rect class="cls-8" x="60" y="80" width="20" height="20"/><rect class="cls-8" x="60" y="100" width="20" height="20"/><path class="cls-9" d="M.22,42.07a.7.7,0,0,0-.22.52V54.44a1,1,0,0,0,.05.31A.48.48,0,0,0,.2,55l.19.13a.75.75,0,0,0,.28.07l.26,0h.55a2.86,2.86,0,0,0,.87,2.1,2.86,2.86,0,0,0,2.09.87,2.86,2.86,0,0,0,2.1-.87,2.86,2.86,0,0,0,.87-2.1h4.44a3,3,0,0,0,5.06,2.1,2.86,2.86,0,0,0,.87-2.1h1.29l.26,0a.75.75,0,0,0,.28-.07L19.8,55a.48.48,0,0,0,.15-.22,1,1,0,0,0,.05-.31.7.7,0,0,0-.22-.52.74.74,0,0,0-.52-.22V50c0-.06,0-.2,0-.41v-.43c0-.09,0-.22,0-.4a1.73,1.73,0,0,0-.08-.43A2.11,2.11,0,0,0,19,48a1.46,1.46,0,0,0-.26-.34l-2.29-2.29a1.7,1.7,0,0,0-.59-.37,1.6,1.6,0,0,0-.67-.15H13.33V42.59a.7.7,0,0,0-.22-.52.73.73,0,0,0-.52-.22H.74a.74.74,0,0,0-.52.22ZM13.77,56.23a1.46,1.46,0,1,1,1.05.44,1.45,1.45,0,0,1-1.05-.44Zm-.44-9.93h1.83a.35.35,0,0,1,.26.1l2.25,2.26a.34.34,0,0,1,.11.25v.35H13.33ZM3.4,56.23a1.48,1.48,0,1,1,2.09-2.09,1.49,1.49,0,0,1-1,2.53,1.45,1.45,0,0,1-1-.44Zm0,0"/><rect class="cls-1" x="80" y="40" width="20" height="20"/><path class="cls-6" d="M99.88,47.2a.38.38,0,0,0-.3-.12H93.85a2.92,2.92,0,1,0,0-5.83,2.63,2.63,0,0,0-2.18,1L90,44.4l-1.67-2.15a2.63,2.63,0,0,0-2.18-1,2.92,2.92,0,1,0,0,5.83H80.42a.41.41,0,0,0-.42.42v4.17a.41.41,0,0,0,.12.3.44.44,0,0,0,.3.11h1.25V57.5a1.25,1.25,0,0,0,1.25,1.25H97.08a1.25,1.25,0,0,0,1.25-1.25V52.08h1.25a.39.39,0,0,0,.42-.41V47.5a.41.41,0,0,0-.12-.3ZM93,43.32a1.09,1.09,0,0,1,.89-.4,1.25,1.25,0,0,1,.89,2.13,1.19,1.19,0,0,1-.89.37H91.33Zm-6.81,2.1a1.19,1.19,0,0,1-.89-.37,1.25,1.25,0,0,1,.89-2.13,1.09,1.09,0,0,1,.89.4l1.64,2.1Zm5.93,4.16v6.83a.59.59,0,0,1-.23.5,1,1,0,0,1-.6.17h-2.5a1,1,0,0,1-.6-.17.59.59,0,0,1-.23-.5V47.08h4.16Zm0,0"/><rect class="cls-1" x="120" y="40" width="20" height="20"/><path class="cls-6" d="M139.77,43.33a.74.74,0,0,0-.54-.23H124.8l-.06-.31c0-.14,0-.26-.06-.35s-.05-.19-.09-.32a1.11,1.11,0,0,0-.16-.29.65.65,0,0,0-.24-.19.77.77,0,0,0-.34-.08h-3.08a.77.77,0,0,0,0,1.54h2.45L125.35,53l-.25.46c-.15.27-.26.51-.35.71a1.33,1.33,0,0,0-.13.48.73.73,0,0,0,.22.54.78.78,0,0,0,.54.23h12.31a.77.77,0,0,0,0-1.54H126.63a2.12,2.12,0,0,0,.29-.77,1.22,1.22,0,0,0,0-.26c0-.1,0-.21-.07-.32a1.25,1.25,0,0,1,0-.26l12.54-1.47A.75.75,0,0,0,140,50V43.87a.74.74,0,0,0-.23-.54Zm0,0"/><path class="cls-6" d="M124.64,56.92a1.52,1.52,0,0,0,1.51,1.52,1.54,1.54,0,0,0,1.52-1.52,1.52,1.52,0,0,0-1.52-1.51,1.5,1.5,0,0,0-1.51,1.51Zm0,0"/><path class="cls-6" d="M135.41,56.92a1.52,1.52,0,0,0,1.51,1.52,1.54,1.54,0,0,0,1.52-1.52,1.52,1.52,0,0,0-2.59-1.07,1.5,1.5,0,0,0-.44,1.07Zm0,0"/><rect class="cls-1" x="20" y="40" width="20" height="20"/><path class="cls-6" d="M38,50.71V55a3,3,0,0,1-3,3H25a3,3,0,0,1-3-3V45a3,3,0,0,1,3-3H35a2.93,2.93,0,0,1,1.75.57l1.42-1.42A5,5,0,0,0,35,40H25a5,5,0,0,0-5,5V55a5,5,0,0,0,5,5H35a5,5,0,0,0,5-5V48.71Z"/><path class="cls-6" d="M39.73,45.41l-1.24-1.23a.85.85,0,0,0-.63-.27.87.87,0,0,0-.64.27L30,51.44,27,48.49a.87.87,0,0,0-.64-.27.89.89,0,0,0-.64.27L24.5,49.72a.89.89,0,0,0,0,1.28l4.82,4.82a.89.89,0,0,0,.64.27.87.87,0,0,0,.64-.27l9.13-9.13a.87.87,0,0,0,.27-.64.89.89,0,0,0-.27-.64Zm0,0"/><path class="cls-2" d="M10,74.76l-9.13-6A1.92,1.92,0,1,1,3,65.56l7,4.59,7-4.59a1.92,1.92,0,1,1,2.11,3.22Z"/><path class="cls-4" d="M10,94.76l-9.13-6A1.92,1.92,0,1,1,3,85.56l7,4.59,7-4.59a1.92,1.92,0,1,1,2.11,3.22Z"/><path class="cls-6" d="M10,114.76l-9.13-6A1.92,1.92,0,1,1,3,105.56l7,4.59,7-4.59a1.92,1.92,0,1,1,2.11,3.22Z"/><g id="Capa_1" data-name="Capa 1"><path class="cls-2" d="M39.76,76.26,31.64,61.85a1.9,1.9,0,0,0-3.28,0L20.24,76.26a1.91,1.91,0,0,0,1.64,2.84H38.06A1.93,1.93,0,0,0,39.76,76.26Zm-17.88.95L30,62.79l8.12,14.42Z"/><path class="cls-2" d="M28.68,69.4l.5,3.34a.81.81,0,0,0,.82.69h0a.86.86,0,0,0,.82-.69l.5-3.34A1.3,1.3,0,0,0,30,67.89h0A1.34,1.34,0,0,0,28.68,69.4Z"/><circle class="cls-2" cx="30" cy="74.88" r="0.76"/></g><g id="Capa_1-2" data-name="Capa 1"><path class="cls-9" d="M39.76,96.26,31.64,81.85a1.9,1.9,0,0,0-3.28,0L20.24,96.26a1.91,1.91,0,0,0,1.64,2.84H38.06A1.93,1.93,0,0,0,39.76,96.26Zm-17.88.95L30,82.79l8.12,14.42Z"/><path class="cls-9" d="M28.68,89.4l.5,3.34a.81.81,0,0,0,.82.69h0a.86.86,0,0,0,.82-.69l.5-3.34A1.3,1.3,0,0,0,30,87.89h0A1.34,1.34,0,0,0,28.68,89.4Z"/><circle class="cls-10" cx="30" cy="94.88" r="0.76"/></g><g id="Capa_1-3" data-name="Capa 1"><path class="cls-6" d="M39.76,116.26l-8.12-14.41a1.9,1.9,0,0,0-3.28,0l-8.12,14.41a1.91,1.91,0,0,0,1.64,2.84H38.06A1.93,1.93,0,0,0,39.76,116.26Zm-17.88.95L30,102.79l8.12,14.42Z"/><path class="cls-6" d="M28.68,109.4l.5,3.34a.81.81,0,0,0,.82.69h0a.86.86,0,0,0,.82-.69l.5-3.34A1.3,1.3,0,0,0,30,107.89h0A1.34,1.34,0,0,0,28.68,109.4Z"/><circle class="cls-6" cx="30" cy="114.88" r="0.76"/></g><rect class="cls-8" x="40" y="60" width="20" height="20"/><path class="cls-2" d="M41.92,67l2.29,1.59,2.92,2,.48.34.6.43c.16.11.35.23.58.36a2.79,2.79,0,0,0,.64.3,1.7,1.7,0,0,0,.56.1h0a1.7,1.7,0,0,0,.56-.1,3.29,3.29,0,0,0,.64-.3c.23-.13.42-.25.58-.36l.6-.43.48-.34L58.09,67a5.25,5.25,0,0,0,1.36-1.38A2.88,2.88,0,0,0,60,63.93a1.81,1.81,0,0,0-1.79-1.79H41.79a1.62,1.62,0,0,0-1.33.58A2.25,2.25,0,0,0,40,64.17a2.61,2.61,0,0,0,.61,1.53A5.9,5.9,0,0,0,41.92,67Zm0,0"/><path class="cls-2" d="M58.88,68.18c-2.44,1.65-4.29,2.94-5.55,3.85-.43.31-.77.56-1,.73a5.6,5.6,0,0,1-1,.54,3.26,3.26,0,0,1-1.23.27h0a3.26,3.26,0,0,1-1.23-.27,5.6,5.6,0,0,1-1-.54c-.27-.17-.61-.42-1-.73q-1.5-1.11-5.54-3.85a5.9,5.9,0,0,1-1.13-1v8.86a1.79,1.79,0,0,0,1.79,1.79H58.21a1.75,1.75,0,0,0,1.27-.53A1.71,1.71,0,0,0,60,76.07V67.21a5.88,5.88,0,0,1-1.12,1Zm0,0"/><rect class="cls-8" x="40" y="80" width="20" height="20"/><path class="cls-4" d="M41.92,87l2.29,1.59,2.92,2,.48.34.6.43c.16.11.35.23.58.36a2.79,2.79,0,0,0,.64.3,1.7,1.7,0,0,0,.56.1h0a1.7,1.7,0,0,0,.56-.1,3.29,3.29,0,0,0,.64-.3c.23-.13.42-.25.58-.36l.6-.43.48-.34L58.09,87a5.25,5.25,0,0,0,1.36-1.38A2.88,2.88,0,0,0,60,83.93a1.81,1.81,0,0,0-1.79-1.79H41.79a1.62,1.62,0,0,0-1.33.58A2.25,2.25,0,0,0,40,84.17a2.61,2.61,0,0,0,.61,1.53A5.9,5.9,0,0,0,41.92,87Zm0,0"/><path class="cls-4" d="M58.88,88.18c-2.44,1.65-4.29,2.94-5.55,3.85-.43.31-.77.56-1,.73a5.6,5.6,0,0,1-1,.54,3.26,3.26,0,0,1-1.23.27h0a3.26,3.26,0,0,1-1.23-.27,5.6,5.6,0,0,1-1-.54c-.27-.17-.61-.42-1-.73q-1.5-1.11-5.54-3.85a5.9,5.9,0,0,1-1.13-1v8.86a1.79,1.79,0,0,0,1.79,1.79H58.21a1.75,1.75,0,0,0,1.27-.53A1.71,1.71,0,0,0,60,96.07V87.21a5.88,5.88,0,0,1-1.12,1Zm0,0"/><rect class="cls-8" x="40" y="100" width="20" height="20"/><path class="cls-6" d="M41.92,107l2.29,1.59,2.92,2,.48.34.6.43c.16.11.35.23.58.36a2.79,2.79,0,0,0,.64.3,1.7,1.7,0,0,0,.56.1h0a1.7,1.7,0,0,0,.56-.1,3.29,3.29,0,0,0,.64-.3c.23-.13.42-.25.58-.36l.6-.43.48-.34L58.09,107a5.25,5.25,0,0,0,1.36-1.38,2.88,2.88,0,0,0,.55-1.68,1.81,1.81,0,0,0-1.79-1.79H41.79a1.62,1.62,0,0,0-1.33.58,2.25,2.25,0,0,0-.46,1.45,2.61,2.61,0,0,0,.61,1.53A5.9,5.9,0,0,0,41.92,107Zm0,0"/><path class="cls-6" d="M58.88,108.18c-2.44,1.65-4.29,2.94-5.55,3.85-.43.31-.77.56-1,.73a5.6,5.6,0,0,1-1,.54,3.26,3.26,0,0,1-1.23.27h0a3.26,3.26,0,0,1-1.23-.27,5.6,5.6,0,0,1-1-.54c-.27-.17-.61-.42-1-.73q-1.5-1.11-5.54-3.85a5.9,5.9,0,0,1-1.13-1v8.86a1.79,1.79,0,0,0,1.79,1.79H58.21a1.75,1.75,0,0,0,1.27-.53,1.71,1.71,0,0,0,.52-1.26v-8.86a5.88,5.88,0,0,1-1.12,1Zm0,0"/><g id="Groupe_80" data-name="Groupe 80"><polygon class="cls-2" points="73.33 70 80 76.67 76.67 80 70 73.33 63.33 80 60 76.67 66.67 70 60 63.33 63.33 60 70 66.67 76.67 60 80 63.33 73.33 70"/></g><g id="Groupe_80-2" data-name="Groupe 80"><polygon class="cls-4" points="73.33 90 80 96.67 76.67 100 70 93.33 63.33 100 60 96.67 66.67 90 60 83.33 63.33 80 70 86.67 76.67 80 80 83.33 73.33 90"/></g><g id="Groupe_80-3" data-name="Groupe 80"><polygon class="cls-6" points="73.33 110 80 116.67 76.67 120 70 113.33 63.33 120 60 116.67 66.67 110 60 103.33 63.33 100 70 106.67 76.67 100 80 103.33 73.33 110"/></g></svg>