<svg xmlns="http://www.w3.org/2000/svg" viewBox="0 0 240 420"><defs><style>.cls-1{fill:#598fc7;}.cls-2,.cls-3{fill:#fff;}.cls-3{opacity:0;}.cls-4,.cls-5{fill:#f5cb07;}.cls-5,.cls-8{opacity:0.75;}.cls-6{fill:#426b96;}.cls-7{fill:#203c63;}.cls-9{fill:#2d6eb1;}.cls-10{fill:#eea655;}.cls-11{fill:none;}.cls-11,.cls-12,.cls-13{fill-rule:evenodd;}.cls-13{fill:#da4538;}.cls-14{fill:#19181c;}.cls-15{fill:#e3723e;}.cls-16{fill:#db3c3a;}.cls-17{fill:#eda14a;}.cls-18{fill:#6870af;}.cls-19{fill:#c73e32;}.cls-20{fill:#4498d0;}.cls-21{fill:#000003;}</style></defs><g id="Calque_2" data-name="Calque 2"><g id="Calque_1-2" data-name="Calque 1"><rect class="cls-1" x="120" width="60" height="60"/><path class="cls-2" d="M135.34,10.28h29.32a5.08,5.08,0,0,1,5.06,5.06V44.66a5.08,5.08,0,0,1-5.06,5.06H135.34a5.08,5.08,0,0,1-5.06-5.06V15.34A5.08,5.08,0,0,1,135.34,10.28ZM159,14.66a1.78,1.78,0,0,0-1.77,1.78v4.25A1.77,1.77,0,0,0,159,22.46h4.46a1.77,1.77,0,0,0,1.77-1.77h0V16.44a1.78,1.78,0,0,0-1.77-1.78ZM165.26,27h-3.47a11.46,11.46,0,0,1,.51,3.39,12.27,12.27,0,0,1-24.52,0,11.46,11.46,0,0,1,.51-3.39h-3.62V43.62a1.56,1.56,0,0,0,1.56,1.56h27.46a1.56,1.56,0,0,0,1.57-1.55h0ZM150,22.24a7.68,7.68,0,1,0,8,7.68,7.79,7.79,0,0,0-7.92-7.68Z"/><rect class="cls-1" x="180" width="60" height="60"/><path class="cls-2" d="M210,8.3a21.7,21.7,0,0,0-8.71,41.58,19.06,19.06,0,0,1,.38-5c.42-1.76,2.79-11.82,2.79-11.82a8.49,8.49,0,0,1-.69-3.44c0-3.21,1.86-5.61,4.18-5.61,2,0,2.93,1.48,2.93,3.25,0,2-1.27,5-1.92,7.71A3.36,3.36,0,0,0,211.41,39a3.24,3.24,0,0,0,1,.1c4.11,0,6.88-5.27,6.88-11.53,0-4.76-3.21-8.32-9-8.32a10.27,10.27,0,0,0-10.68,9.86c0,.18,0,.35,0,.53A6.22,6.22,0,0,0,201,34a1.05,1.05,0,0,1,.31,1.21c-.1.4-.34,1.36-.45,1.74a.74.74,0,0,1-.84.62.62.62,0,0,1-.24-.08c-3-1.23-4.45-4.55-4.45-8.29,0-6.16,5.2-13.55,15.52-13.55,8.28,0,13.73,6,13.73,12.43,0,8.51-4.73,14.87-11.71,14.87a6.25,6.25,0,0,1-5.3-2.7s-1.26,5-1.52,6a18.15,18.15,0,0,1-2.19,4.65A21.7,21.7,0,0,0,215.52,9.1,21.47,21.47,0,0,0,210,8.3Z"/><rect class="cls-1" width="60" height="60"/><path class="cls-2" d="M41.91,32.27l1.18-9.19H34V17.22c0-2.66.74-4.47,4.55-4.47h4.86V4.53a64.44,64.44,0,0,0-7.08-.36c-7,0-11.81,4.28-11.81,12.14v6.77H16.59v9.19h7.93V55.83H34V32.27Z"/><rect class="cls-1" x="60" width="60" height="60"/><path class="cls-2" d="M110,17.6a16.39,16.39,0,0,1-4.71,1.29,8.24,8.24,0,0,0,3.6-4.54,16.55,16.55,0,0,1-5.2,2,8.22,8.22,0,0,0-14,7.48,23.22,23.22,0,0,1-16.91-8.57,8.2,8.2,0,0,0,2.53,11,8.29,8.29,0,0,1-3.71-1v.1a8.22,8.22,0,0,0,6.58,8,8.27,8.27,0,0,1-2.16.29,8.06,8.06,0,0,1-1.55-.15,8.24,8.24,0,0,0,7.67,5.7A16.49,16.49,0,0,1,72,42.68a19,19,0,0,1-2-.11,23.26,23.26,0,0,0,12.58,3.68c15.1,0,23.35-12.5,23.35-23.35V21.84A16.57,16.57,0,0,0,110,17.6Z"/><rect class="cls-2" x="120" y="60" width="60" height="60"/><path class="cls-1" d="M135.34,70.28h29.32a5.08,5.08,0,0,1,5.06,5.06v29.32a5.08,5.08,0,0,1-5.06,5.06H135.34a5.08,5.08,0,0,1-5.06-5.06V75.34A5.08,5.08,0,0,1,135.34,70.28ZM159,74.66a1.78,1.78,0,0,0-1.77,1.78v4.25A1.77,1.77,0,0,0,159,82.46h4.46a1.77,1.77,0,0,0,1.77-1.77h0V76.44a1.78,1.78,0,0,0-1.77-1.78ZM165.26,87h-3.47a11.46,11.46,0,0,1,.51,3.39,12.27,12.27,0,0,1-24.52,0,11.46,11.46,0,0,1,.51-3.39h-3.62v16.66a1.56,1.56,0,0,0,1.56,1.56h27.46a1.56,1.56,0,0,0,1.57-1.55h0ZM150,82.24a7.68,7.68,0,1,0,8,7.68,7.79,7.79,0,0,0-7.92-7.68Z"/><rect class="cls-2" x="180" y="60" width="60" height="60"/><path class="cls-1" d="M210,68.3a21.7,21.7,0,0,0-8.71,41.58,19.06,19.06,0,0,1,.38-5c.42-1.76,2.79-11.82,2.79-11.82a8.49,8.49,0,0,1-.69-3.44c0-3.21,1.86-5.61,4.18-5.61,2,0,2.93,1.48,2.93,3.25,0,2-1.27,5-1.92,7.71A3.36,3.36,0,0,0,211.41,99a3.24,3.24,0,0,0,1,.1c4.11,0,6.88-5.27,6.88-11.53,0-4.76-3.21-8.32-9-8.32a10.27,10.27,0,0,0-10.68,9.86c0,.18,0,.35,0,.53A6.22,6.22,0,0,0,201,94a1.05,1.05,0,0,1,.31,1.21c-.1.4-.34,1.36-.45,1.74a.74.74,0,0,1-.84.62.62.62,0,0,1-.24-.08c-3-1.23-4.45-4.55-4.45-8.29,0-6.16,5.2-13.55,15.52-13.55,8.28,0,13.73,6,13.73,12.43,0,8.51-4.73,14.87-11.71,14.87a6.25,6.25,0,0,1-5.3-2.7s-1.26,5-1.52,6a18.15,18.15,0,0,1-2.19,4.65,21.7,21.7,0,0,0,11.66-41.8A21.47,21.47,0,0,0,210,68.3Z"/><rect class="cls-2" y="60" width="60" height="60"/><rect class="cls-2" y="120" width="120" height="60"/><rect class="cls-2" x="120" y="120" width="120" height="60"/><rect class="cls-3" y="180" width="120" height="60"/><rect class="cls-3" x="120" y="180" width="120" height="60"/><rect class="cls-2" y="240" width="120" height="60"/><rect class="cls-2" x="120" y="240" width="120" height="60"/><rect class="cls-3" y="300" width="120" height="60"/><rect class="cls-3" x="120" y="300" width="120" height="60"/><rect class="cls-4" y="360" width="120" height="60"/><rect class="cls-5" x="120" y="360" width="120" height="60"/><path class="cls-1" d="M41.91,92.27l1.18-9.19H34V77.22c0-2.66.74-4.47,4.55-4.47h4.86V64.53a64.44,64.44,0,0,0-7.08-.36c-7,0-11.81,4.28-11.81,12.14v6.77H16.59v9.19h7.93v23.56H34V92.27Z"/><rect class="cls-2" x="60" y="60" width="60" height="60"/><path class="cls-1" d="M110,77.6a16.39,16.39,0,0,1-4.71,1.29,8.24,8.24,0,0,0,3.6-4.54,16.55,16.55,0,0,1-5.2,2,8.22,8.22,0,0,0-14,7.48,23.22,23.22,0,0,1-16.91-8.57,8.2,8.2,0,0,0,2.53,11,8.29,8.29,0,0,1-3.71-1v.1a8.22,8.22,0,0,0,6.58,8,8.27,8.27,0,0,1-2.16.29,8.06,8.06,0,0,1-1.55-.15,8.24,8.24,0,0,0,7.67,5.7A16.49,16.49,0,0,1,72,102.68a19,19,0,0,1-2-.11,23.26,23.26,0,0,0,12.58,3.68c15.1,0,23.35-12.5,23.35-23.35V81.84A16.57,16.57,0,0,0,110,77.6Z"/><path class="cls-6" d="M203.14,264.43a7.64,7.64,0,0,0-3.56-.63,15.3,15.3,0,0,0-2.43.19,8.7,8.7,0,0,0-1,.19,1.13,1.13,0,0,0-.85.92l-.25,1c-.14.65.23.62.39.57a8.38,8.38,0,0,1,1.18-.35,9.25,9.25,0,0,1,1.88-.26,4.82,4.82,0,0,1,1.81.26.93.93,0,0,1,.61.91.66.66,0,0,1,0,.28c0,.08-.1.15-.29.18-1.14.07-2,.17-2.94.32a9.05,9.05,0,0,0-2.57.69,4,4,0,0,0-1.72,1.36,3.74,3.74,0,0,0-.57,2.09,2.45,2.45,0,0,0,.85,1.89,3.06,3.06,0,0,0,2.1.72,5.28,5.28,0,0,0,1.26-.12,6.36,6.36,0,0,0,1-.32,5.46,5.46,0,0,0,.86-.46l.76-.5h0l-.08.31h0a.59.59,0,0,0,.41.73l.12,0h1.89a1.07,1.07,0,0,0,.86-.76l1.46-6.29a4.34,4.34,0,0,0,.08-.52v-.48A2.14,2.14,0,0,0,203.14,264.43Zm-3.56,7.49a7.31,7.31,0,0,1-.79.4,2.85,2.85,0,0,1-1,.22,2.26,2.26,0,0,1-1.14-.22.75.75,0,0,1-.38-.74,1.56,1.56,0,0,1,.28-1,2.12,2.12,0,0,1,.86-.58,8.27,8.27,0,0,1,1.31-.29c.46-.06,1.36-.16,1.47-.16s.2-.06.15.24c0,.13-.29,1.21-.41,1.71A1.11,1.11,0,0,1,199.58,271.92Z"/><path class="cls-7" d="M178,263.94a1.69,1.69,0,0,0-1.25.76l-3.14,5.4c-.16.26-.31.09-.34,0s-.86-5.37-.86-5.37a1.09,1.09,0,0,0-1.09-.78h-1.79a.59.59,0,0,0-.62.56.75.75,0,0,0,0,.21s1.37,7.71,1.63,9.54c.13,1,0,1.2,0,1.2l-1.76,3.07c-.26.42-.12.77.31.77h2.07a1.73,1.73,0,0,0,1.25-.77l8-13.45s.76-1.15.06-1.14h-2.4"/><path class="cls-7" d="M152.89,266.67a4.17,4.17,0,0,1-2.52.67h-.49a.6.6,0,0,1-.63-.57.65.65,0,0,1,0-.2l.6-2.57a1,1,0,0,1,.95-.76h.66a3,3,0,0,1,1.72.4,1.29,1.29,0,0,1,.57,1.18,2.13,2.13,0,0,1-.85,1.88m4.28-4a3,3,0,0,0-1.1-1.17,4.91,4.91,0,0,0-1.71-.64,15.54,15.54,0,0,0-2.36-.19h-4.16a1,1,0,0,0-1,.77l-2.83,12.16a.59.59,0,0,0,.39.74.53.53,0,0,0,.22,0h2a1,1,0,0,0,1-.76l.69-3a1,1,0,0,1,.95-.76h.57a9.42,9.42,0,0,0,5.7-1.5,4.7,4.7,0,0,0,2-4,3.86,3.86,0,0,0-.38-1.8"/><path class="cls-6" d="M189.16,266.72a4.15,4.15,0,0,1-2.52.65h-.49a.58.58,0,0,1-.63-.55.44.44,0,0,1,0-.2l.6-2.57a1,1,0,0,1,1-.76h.63a3.41,3.41,0,0,1,1.71.39,1.34,1.34,0,0,1,.58,1.19,2.2,2.2,0,0,1-.9,1.89m4.29-4a3,3,0,0,0-1.11-1.17,5,5,0,0,0-1.71-.64,13.22,13.22,0,0,0-2.35-.18h-4.18a1,1,0,0,0-1,.76l-2.76,12.2a.6.6,0,0,0,.41.73.62.62,0,0,0,.19,0h2a1,1,0,0,0,1-.75l.68-3a1,1,0,0,1,1-.76h.56a9.43,9.43,0,0,0,5.71-1.5,4.72,4.72,0,0,0,2-4,4,4,0,0,0-.37-1.8"/><path class="cls-7" d="M166.84,264.42a7.72,7.72,0,0,0-3.58-.63,15.09,15.09,0,0,0-2.42.19,8.7,8.7,0,0,0-1,.19,1.15,1.15,0,0,0-.85.92l-.24,1c-.14.64.23.6.39.56a10,10,0,0,1,1.18-.35,9.25,9.25,0,0,1,1.88-.26,4.82,4.82,0,0,1,1.81.26.94.94,0,0,1,.61.91.66.66,0,0,1,0,.28c0,.08-.1.16-.29.18-1.14.07-2,.17-2.95.32a9.14,9.14,0,0,0-2.57.69,4,4,0,0,0-1.72,1.36,3.74,3.74,0,0,0-.57,2.09,2.43,2.43,0,0,0,.81,1.88,3.07,3.07,0,0,0,2.11.73,5.25,5.25,0,0,0,1.25-.12,6.48,6.48,0,0,0,1-.32,4.79,4.79,0,0,0,.86-.47l.75-.49h0l-.07.31h0a.59.59,0,0,0,.39.73l.14,0h1.89a1,1,0,0,0,.86-.75l1.46-6.3a3.09,3.09,0,0,0,.07-.52,1.93,1.93,0,0,0,0-.48A2.1,2.1,0,0,0,166.84,264.42Zm-3.54,7.5a7.22,7.22,0,0,1-.78.41,3,3,0,0,1-1.05.22,2.31,2.31,0,0,1-1.13-.22.79.79,0,0,1-.4-.75,1.53,1.53,0,0,1,.3-1,2.08,2.08,0,0,1,.85-.58,7.6,7.6,0,0,1,1.32-.29c.46-.06,1.36-.16,1.48-.16s.19-.06.13.24c0,.13-.28,1.2-.4,1.71A.94.94,0,0,1,163.3,271.92Z"/><path class="cls-6" d="M210,260.82h-1.79a1,1,0,0,0-.93.7v.07l-.11.44-2.47,11.2c-.06.25-.09.43-.11.47h0a.6.6,0,0,0,.41.72l.12,0H207a1,1,0,0,0,.93-.71v-.06l2.67-12.12h0a.59.59,0,0,0-.43-.71Z"/><path class="cls-6" d="M212.71,263.29h-.39a.64.64,0,0,1-.46-.15.74.74,0,0,1-.15-.52v-1h-.23v-.27h.24v-.59H212v.56h.68v.3H212v1.1a.49.49,0,0,0,.05.16.27.27,0,0,0,.11.1.34.34,0,0,0,.2,0h.16l.13,0h0Z"/><path class="cls-6" d="M215.94,263.34h-.32V262a.64.64,0,0,0-.06-.18.2.2,0,0,0-.11-.11.38.38,0,0,0-.21,0,.67.67,0,0,0-.28.06,1.67,1.67,0,0,0-.28.18.14.14,0,0,1,0,.09.17.17,0,0,1,0,.1v1.25h-.32v-1.53a.34.34,0,0,0-.12-.12H214a.48.48,0,0,0-.26.07,1.56,1.56,0,0,0-.28.16v1.42h-.32V261.4h.27v.21a1.23,1.23,0,0,1,.31-.19.6.6,0,0,1,.32-.07.65.65,0,0,1,.34.07.52.52,0,0,1,.2.24,1.88,1.88,0,0,1,.36-.24.92.92,0,0,1,.36-.07.54.54,0,0,1,.47.19.84.84,0,0,1,.15.54Z"/><g class="cls-8"><path class="cls-6" d="M203.15,324.43a7.68,7.68,0,0,0-3.57-.63,15.09,15.09,0,0,0-2.42.19,7.94,7.94,0,0,0-1,.19,1.15,1.15,0,0,0-.86.92l-.25,1c-.14.65.23.62.39.57a8.13,8.13,0,0,1,1.19-.35,9.06,9.06,0,0,1,1.87-.26,4.82,4.82,0,0,1,1.81.26.92.92,0,0,1,.61.91.66.66,0,0,1,0,.28c0,.08-.09.15-.29.18-1.14.07-2,.17-2.94.32a9.14,9.14,0,0,0-2.57.69,4,4,0,0,0-1.72,1.36,3.74,3.74,0,0,0-.57,2.09,2.43,2.43,0,0,0,.86,1.89,3,3,0,0,0,2.1.72,5.38,5.38,0,0,0,1.26-.12,7.2,7.2,0,0,0,1-.32,5.83,5.83,0,0,0,.85-.46l.76-.5h0l-.08.31h0a.6.6,0,0,0,.42.73l.11,0H202a1.07,1.07,0,0,0,.85-.76l1.46-6.29a3,3,0,0,0,.08-.52v-.48A2.14,2.14,0,0,0,203.15,324.43Zm-3.57,7.49a7.31,7.31,0,0,1-.79.4,2.84,2.84,0,0,1-1,.22,2.22,2.22,0,0,1-1.14-.22.76.76,0,0,1-.39-.74,1.56,1.56,0,0,1,.28-1,2.12,2.12,0,0,1,.86-.58,8.52,8.52,0,0,1,1.31-.29c.46-.06,1.36-.16,1.48-.16s.19-.06.14.24c0,.13-.29,1.21-.41,1.71A1,1,0,0,1,199.58,331.92Z"/><path class="cls-7" d="M178,323.94a1.71,1.71,0,0,0-1.26.76l-3.14,5.4c-.16.26-.31.09-.34,0s-.85-5.37-.85-5.37a1.11,1.11,0,0,0-1.1-.78h-1.78a.59.59,0,0,0-.63.56.76.76,0,0,0,0,.21s1.36,7.71,1.63,9.54c.12,1,0,1.2,0,1.2l-1.77,3.07c-.26.42-.12.77.31.77h2.07a1.73,1.73,0,0,0,1.25-.77l8-13.45s.76-1.15.06-1.14h-2.4"/><path class="cls-7" d="M152.89,326.67a4.15,4.15,0,0,1-2.52.67h-.49a.6.6,0,0,1-.63-.57.64.64,0,0,1,0-.2l.6-2.57a1,1,0,0,1,1-.76h.66a3,3,0,0,1,1.71.4,1.32,1.32,0,0,1,.58,1.18,2.16,2.16,0,0,1-.86,1.88m4.28-4a3,3,0,0,0-1.09-1.17,5,5,0,0,0-1.72-.64,15.51,15.51,0,0,0-2.35-.19h-4.17a1,1,0,0,0-1,.77l-2.83,12.16a.6.6,0,0,0,.39.74.55.55,0,0,0,.22,0h2a1,1,0,0,0,.95-.76l.69-3a1,1,0,0,1,.95-.76h.57a9.42,9.42,0,0,0,5.7-1.5,4.67,4.67,0,0,0,2-4,3.86,3.86,0,0,0-.38-1.8"/><path class="cls-6" d="M189.17,326.72a4.17,4.17,0,0,1-2.52.65h-.5a.58.58,0,0,1-.63-.55.44.44,0,0,1,0-.2l.6-2.57a1,1,0,0,1,1-.76h.63a3.39,3.39,0,0,1,1.71.39,1.37,1.37,0,0,1,.59,1.19,2.25,2.25,0,0,1-.9,1.89m4.28-4a3,3,0,0,0-1.1-1.17,5,5,0,0,0-1.72-.64,13.15,13.15,0,0,0-2.35-.18h-4.18a1,1,0,0,0-1,.76l-2.75,12.2a.59.59,0,0,0,.4.73.65.65,0,0,0,.2,0h2a1,1,0,0,0,1-.75l.68-3a1,1,0,0,1,1-.76h.57a9.42,9.42,0,0,0,5.7-1.5,4.73,4.73,0,0,0,2-4,4,4,0,0,0-.38-1.8"/><path class="cls-7" d="M166.84,324.42a7.72,7.72,0,0,0-3.58-.63,15,15,0,0,0-2.41.19,8.7,8.7,0,0,0-1,.19,1.16,1.16,0,0,0-.86.92l-.24,1c-.14.64.23.6.39.56a10.11,10.11,0,0,1,1.19-.35,9.06,9.06,0,0,1,1.87-.26,4.82,4.82,0,0,1,1.81.26.93.93,0,0,1,.61.91.66.66,0,0,1,0,.28c0,.08-.1.16-.29.18-1.14.07-1.95.17-2.95.32a9.14,9.14,0,0,0-2.57.69,3.94,3.94,0,0,0-1.71,1.36,3.67,3.67,0,0,0-.58,2.09,2.4,2.4,0,0,0,.82,1.88,3,3,0,0,0,2.1.73,5.38,5.38,0,0,0,1.26-.12,6.36,6.36,0,0,0,1-.32,4.79,4.79,0,0,0,.86-.47l.76-.49h0l-.08.31h0a.59.59,0,0,0,.39.73l.14,0h1.89a1,1,0,0,0,.86-.75l1.47-6.3c0-.17,0-.35.07-.52a3.84,3.84,0,0,0,0-.48A2.12,2.12,0,0,0,166.84,324.42Zm-3.53,7.5a7.37,7.37,0,0,1-.79.41,2.9,2.9,0,0,1-1.05.22,2.31,2.31,0,0,1-1.13-.22.76.76,0,0,1-.39-.75,1.47,1.47,0,0,1,.29-1,2.12,2.12,0,0,1,.86-.58,7.4,7.4,0,0,1,1.32-.29c.45-.06,1.35-.16,1.47-.16s.19-.06.14.24c0,.13-.29,1.2-.41,1.71A.85.85,0,0,1,163.31,331.92Z"/><path class="cls-6" d="M210,320.82h-1.79a1,1,0,0,0-.93.7v.07l-.1.44-2.47,11.2-.11.47h0a.58.58,0,0,0,.4.72l.13,0H207a1,1,0,0,0,.93-.71v-.06l2.68-12.12h0a.6.6,0,0,0-.44-.71Z"/><path class="cls-6" d="M212.71,323.29h-.39a.64.64,0,0,1-.46-.15.74.74,0,0,1-.15-.52v-1h-.22v-.27h.23v-.59H212v.56h.68v.3H212v1.1a.52.52,0,0,0,.06.16.19.19,0,0,0,.1.1.34.34,0,0,0,.2,0h.17l.13,0h0Z"/><path class="cls-6" d="M215.94,323.34h-.32V322a.61.61,0,0,0-.05-.18.2.2,0,0,0-.11-.11.43.43,0,0,0-.22,0,.63.63,0,0,0-.27.06,1.75,1.75,0,0,0-.29.18.14.14,0,0,1,0,.09.17.17,0,0,1,0,.1v1.25h-.32V322a.54.54,0,0,0,0-.18.34.34,0,0,0-.12-.12H214a.48.48,0,0,0-.26.07,1.56,1.56,0,0,0-.28.16v1.42h-.32V321.4h.27v.21a1.23,1.23,0,0,1,.31-.19.62.62,0,0,1,.33-.07.64.64,0,0,1,.33.07.61.61,0,0,1,.21.24,1.41,1.41,0,0,1,.36-.24.84.84,0,0,1,.35-.07.53.53,0,0,1,.47.19.84.84,0,0,1,.15.54Z"/></g><polygon class="cls-9" points="55.23 161.26 49.36 161.26 53.02 138.75 58.89 138.75 55.23 161.26"/><path class="cls-9" d="M44.43,138.74l-5.59,15.49-.66-3.34h0l-2-10.12s-.21-2-2.78-2H24.19l-.11.39a21.45,21.45,0,0,1,6.13,2.57l5.1,19.56h6.1l9.32-22.52Z"/><path class="cls-9" d="M90.54,161.26h5.38l-4.69-22.52H86.51a2.7,2.7,0,0,0-2.7,1.71l-8.74,20.84h6.11L82.4,158h7.45Zm-6.45-8,3.08-8.42,1.72,8.42Z"/><path class="cls-9" d="M75.52,144.16l.86-4.84a16.88,16.88,0,0,0-5.27-1c-2.92,0-9.82,1.26-9.82,7.44,0,5.82,8.1,5.89,8.1,9s-7.26,2.51-9.66.58l-.86,5.05a16.18,16.18,0,0,0,6.62,1.28c4,0,10-2.07,10-7.71,0-5.86-8.18-6.4-8.18-8.94S73,142.78,75.52,144.16Z"/><path class="cls-10" d="M38.18,150.89l-2-10.12s-.21-2-2.78-2H24.19l-.11.39a22.69,22.69,0,0,1,8.7,4.37A17.5,17.5,0,0,1,38.18,150.89Z"/><g class="cls-8"><polygon class="cls-9" points="55.23 221.26 49.36 221.26 53.02 198.75 58.89 198.75 55.23 221.26"/><path class="cls-9" d="M44.43,198.74l-5.59,15.49-.66-3.34h0l-2-10.12s-.21-2-2.78-2H24.19l-.11.39a21.45,21.45,0,0,1,6.13,2.57l5.1,19.56h6.1l9.32-22.52Z"/><path class="cls-9" d="M90.54,221.26h5.38l-4.69-22.52H86.51a2.7,2.7,0,0,0-2.7,1.71l-8.74,20.84h6.11L82.4,218h7.45Zm-6.45-8,3.08-8.42,1.72,8.42Z"/><path class="cls-9" d="M75.52,204.16l.86-4.84a16.88,16.88,0,0,0-5.27-1c-2.92,0-9.82,1.26-9.82,7.44,0,5.82,8.1,5.89,8.1,9s-7.26,2.51-9.66.58l-.86,5.05a16.18,16.18,0,0,0,6.62,1.28c4,0,10-2.07,10-7.71,0-5.86-8.18-6.4-8.18-8.94S73,202.78,75.52,204.16Z"/><path class="cls-10" d="M38.18,210.89l-2-10.12s-.21-2-2.78-2H24.19l-.11.39a22.69,22.69,0,0,1,8.7,4.37A17.5,17.5,0,0,1,38.18,210.89Z"/></g><polygon class="cls-11" points="0 368.49 120 368.49 120 411.51 0 411.51 0 368.49 0 368.49"/><path class="cls-12" d="M17.83,376.92h2.79c2.45,0,4.63.71,4.63,3.35s-1.88,3.51-4.28,3.51H20V388H17.83ZM20,382.06h.82c1.12,0,2.08-.35,2.08-1.62s-1-1.71-2.08-1.71H20v3.33Z"/><path class="cls-12" d="M30,379.66a4.12,4.12,0,0,1,4.29,3.92V384a4.06,4.06,0,0,1-3.89,4.22H30a4,4,0,0,1-4.28-3.8c0-.12,0-.25,0-.37a4.11,4.11,0,0,1,3.9-4.29H30Zm0,6.91c1.71,0,2.08-1.47,2.08-2.84s-.66-2.44-2.08-2.44-2,1.22-2,2.44S28.4,386.57,30,386.57Z"/><path class="cls-12" d="M40.8,381.54a5.75,5.75,0,0,0-1.89-.35c-.6,0-1.26.2-1.26.91,0,1.32,3.71.46,3.71,3.43,0,1.88-1.72,2.64-3.43,2.64a8.81,8.81,0,0,1-2.39-.36l.1-1.71a5.25,5.25,0,0,0,2.13.51c.51,0,1.38-.21,1.38-1,0-1.62-3.72-.51-3.72-3.43,0-1.78,1.58-2.57,3.21-2.57a9.14,9.14,0,0,1,2.33.3l-.14,1.57Z"/><path class="cls-12" d="M43.44,381.43H41.86v-1.57h1.58v-1.63l2.13-.66v2.29h1.88v1.57H45.57v3.81c0,.71.2,1.37,1,1.37a1.79,1.79,0,0,0,1-.25l.06,1.71a4.71,4.71,0,0,1-1.58.21A2.43,2.43,0,0,1,43.45,386a1.79,1.79,0,0,1,0-.4v-4.2Z"/><polygon class="cls-12" points="48.87 376.92 55.07 376.92 55.07 378.69 51.11 378.69 51.11 381.39 54.87 381.39 54.87 383.17 51.11 383.17 51.11 387.99 48.87 387.99 48.87 376.92 48.87 376.92"/><path class="cls-12" d="M56.44,376.29h2.14v2H56.44Zm0,3.5h2.14V388H56.44Z"/><path class="cls-12" d="M60.86,379.82h2v1.11a3.08,3.08,0,0,1,2.69-1.27c1.93,0,2.79,1.32,2.79,3.2V388H66.2v-4.37c0-1,0-2.33-1.37-2.33C63.25,381.3,63,383,63,384v4H60.86v-8.17Z"/><path class="cls-12" d="M70.72,380.27a6.86,6.86,0,0,1,2.85-.61c2.48,0,3.5,1,3.5,3.43v3.1c0,.62.06,1.22.11,1.83H75.34a5.53,5.53,0,0,1-.1-1.22h0a2.84,2.84,0,0,1-2.49,1.43,2.62,2.62,0,0,1-2.89-2.45,2.45,2.45,0,0,1,1.42-2.34A6.41,6.41,0,0,1,74,383h1.17c0-1.32-.56-1.78-1.83-1.78a4.21,4.21,0,0,0-2.57.91l0-1.82Zm2.49,6.35a1.71,1.71,0,0,0,1.47-.71,2.73,2.73,0,0,0,.46-1.71h-.91c-1,0-2.39.15-2.39,1.42,0,.66.61,1,1.37,1Z"/><path class="cls-12" d="M79.2,379.82h2v1.11h0a3.07,3.07,0,0,1,2.69-1.27c1.93,0,2.74,1.32,2.74,3.2V388H84.54v-4.37c0-1,0-2.33-1.37-2.33-1.53,0-1.88,1.67-1.88,2.74v4H79.2v-8.17Z"/><path class="cls-12" d="M94.19,381.59a3.72,3.72,0,0,0-1.47-.3c-1.32,0-2.14,1.06-2.14,2.57s.71,2.69,2.19,2.69a5,5,0,0,0,1.71-.4l0,1.78a8.11,8.11,0,0,1-2.08.25c-2.7,0-4.07-1.83-4.07-4.28s1.42-4.22,4-4.22a6.35,6.35,0,0,1,2.08.25l-.2,1.71Z"/><path class="cls-12" d="M102.32,387.54a5.36,5.36,0,0,1-2.8.66A3.9,3.9,0,0,1,95.24,384c0-2.39,1.22-4.28,3.76-4.28,3,0,3.91,2.08,3.91,4.93H97.28a2.11,2.11,0,0,0,2.17,2h.16a5.37,5.37,0,0,0,2.69-.82v1.72Zm-1.43-4.4c0-1-.55-1.93-1.71-1.93A1.87,1.87,0,0,0,97.3,383v.1Z"/><polygon class="cls-13" points="106.43 391.85 111.87 391.85 111.01 395.87 115.02 395.87 113.96 400.89 109.94 400.89 109.18 404.66 104.76 404.66 105.02 403.34 108.11 403.34 108.87 399.63 112.89 399.63 113.39 397.14 109.38 397.14 110.19 393.18 107.5 393.18 106.69 397.14 105.32 397.14 106.43 391.85 106.43 391.85"/><polygon class="cls-13" points="103.13 404.66 103.84 401.36 65.99 401.36 65.28 404.66 103.13 404.66 103.13 404.66"/><path class="cls-12" d="M84.64,396H83.52v.05l-1.37,6.35v.05h1.42v-.05s.41-1.93.46-2.08h.66a2.92,2.92,0,0,0,2.13-.76,2.2,2.2,0,0,0,.67-1.62,1.69,1.69,0,0,0-.46-1.23,3.43,3.43,0,0,0-2.39-.71Zm0,1.12h.36a1,1,0,0,1,.71.3.72.72,0,0,1,.25.66,1.26,1.26,0,0,1-1.37,1.13h-.36l.41-2.09Z"/><path class="cls-12" d="M93.22,396.63a2.77,2.77,0,0,0-2-.71,3.23,3.23,0,0,0-2.69,1.22,4.5,4.5,0,0,0-1,2.79,2.77,2.77,0,0,0,.75,2,2.53,2.53,0,0,0,1.84.72,3.83,3.83,0,0,0,2.74-1.08,4.54,4.54,0,0,0,1.06-2.88A2.87,2.87,0,0,0,93.22,396.63Zm-2.94,4.88a1.18,1.18,0,0,1-.85-.36A1.62,1.62,0,0,1,89,400a3.6,3.6,0,0,1,.92-2.4A1.75,1.75,0,0,1,91.2,397a1.25,1.25,0,0,1,.86.35,1.61,1.61,0,0,1,.4,1.17C92.46,399.73,91.71,401.51,90.28,401.51Z"/><path class="cls-12" d="M69.75,396H68v.05l-1.32,6.35v.05h2.19a3.42,3.42,0,0,0,2.89-1.16,4.16,4.16,0,0,0,.86-2.34c.1-1.83-.86-2.8-2.9-2.95Zm-.5,1.12h.1a2.09,2.09,0,0,1,1.52.46,1.13,1.13,0,0,1,.31,1c-.05,1.87-.86,2.74-2.57,2.74h-.26l.86-4.22Z"/><path class="cls-12" d="M98.77,396.22a4.59,4.59,0,0,0-1.72-.3c-1.12,0-2.44.51-2.44,2a1.81,1.81,0,0,0,1.28,1.67c.45.26.86.52.86,1a1,1,0,0,1-1,1h-.09a3.73,3.73,0,0,1-1.52-.46h-.06l0,.05-.3,1.07h0l0,.05a5.78,5.78,0,0,0,1.83.36,2.83,2.83,0,0,0,2.08-.71,2,2,0,0,0,.56-1.47,2.08,2.08,0,0,0-1.32-1.83c-.45-.26-.86-.51-.86-.92a.48.48,0,0,1,.16-.36,1.38,1.38,0,0,1,.85-.3,3,3,0,0,1,1.32.36h.06v-.06l.3-1.06v-.05Z"/><polygon class="cls-12" points="80.57 396.02 76.87 396.02 76.82 396.02 76.82 396.07 75.45 402.42 75.45 402.47 75.55 402.47 79.3 402.47 79.35 402.47 79.35 402.42 79.56 401.46 79.61 401.36 79.56 401.36 79.51 401.36 77.07 401.36 77.43 399.73 79.61 399.73 79.66 399.73 79.66 399.68 79.86 398.67 79.86 398.61 79.86 398.56 79.82 398.56 77.68 398.56 77.98 397.14 80.43 397.14 80.48 397.14 80.48 397.09 80.67 396.07 80.67 396.02 80.62 396.02 80.57 396.02 80.57 396.02"/><polygon class="cls-12" points="75.64 396.02 75.6 396.02 75.55 396.02 74.23 396.02 74.18 396.02 74.18 396.07 72.86 402.42 72.81 402.47 72.86 402.47 72.91 402.47 74.23 402.47 74.28 402.47 74.28 402.42 75.6 396.07 75.64 396.02 75.64 396.02"/><path class="cls-12" d="M104.2,396h-5v.05l-.2,1-.06.05h1.79l-1.13,5.28v.05H101l0-.05,1.12-5.28H104l0-.05.2-1Z"/><g class="cls-8"><polygon class="cls-11" points="120 368.49 240 368.49 240 411.51 120 411.51 120 368.49 120 368.49"/><path class="cls-12" d="M137.83,376.92h2.79c2.45,0,4.63.71,4.63,3.35s-1.88,3.51-4.28,3.51h-1V388h-2.17Zm2.18,5.14h.86c1.12,0,2.08-.35,2.08-1.62s-1-1.71-2.08-1.71H140v3.33Z"/><path class="cls-12" d="M150,379.66a4.12,4.12,0,0,1,4.29,3.92V384a4.29,4.29,0,1,1-4.29-4.29Zm0,6.91c1.71,0,2.08-1.47,2.08-2.84s-.66-2.44-2.08-2.44-2,1.22-2,2.44S148.4,386.57,150,386.57Z"/><path class="cls-12" d="M160.8,381.54a5.75,5.75,0,0,0-1.89-.35c-.6,0-1.26.2-1.26.91,0,1.32,3.71.46,3.71,3.43,0,1.88-1.72,2.64-3.43,2.64a8.81,8.81,0,0,1-2.39-.36l.1-1.71a5.25,5.25,0,0,0,2.13.51c.51,0,1.38-.21,1.38-1,0-1.62-3.72-.51-3.72-3.43,0-1.78,1.58-2.57,3.21-2.57a9.14,9.14,0,0,1,2.33.3l-.14,1.57Z"/><path class="cls-12" d="M163.44,381.43h-1.58v-1.57h1.58v-1.63l2.13-.66v2.29h1.88v1.57h-1.88v3.81c0,.71.2,1.37,1,1.37a1.79,1.79,0,0,0,1-.25l.06,1.71a4.71,4.71,0,0,1-1.58.21,2.43,2.43,0,0,1-2.58-2.25,1.79,1.79,0,0,1,0-.4v-4.2Z"/><polygon class="cls-12" points="168.87 376.92 175.07 376.92 175.07 378.69 171.11 378.69 171.11 381.39 174.87 381.39 174.87 383.17 171.11 383.17 171.11 387.99 168.87 387.99 168.87 376.92 168.87 376.92"/><path class="cls-12" d="M176.44,376.29h2.14v2h-2.14Zm0,3.5h2.14V388h-2.14Z"/><path class="cls-12" d="M180.86,379.82h2v1.11a3.08,3.08,0,0,1,2.69-1.27c1.93,0,2.79,1.32,2.79,3.2V388h-2.13v-4.37c0-1,0-2.33-1.37-2.33-1.58,0-1.88,1.67-1.88,2.74v4h-2.13v-8.17Z"/><path class="cls-12" d="M190.72,380.27a6.86,6.86,0,0,1,2.85-.61c2.48,0,3.5,1,3.5,3.43v1.06c0,.86.05,1.43.05,2s0,1.22.1,1.83h-1.88a5.53,5.53,0,0,1-.1-1.22h-.05a2.84,2.84,0,0,1-2.49,1.43,2.62,2.62,0,0,1-2.89-2.45,2.45,2.45,0,0,1,1.42-2.34A6.41,6.41,0,0,1,194,383h1.17c0-1.32-.56-1.78-1.83-1.78a4.21,4.21,0,0,0-2.57.91l-.05-1.82Zm2.49,6.35a1.71,1.71,0,0,0,1.47-.71,2.73,2.73,0,0,0,.46-1.71h-.91c-1,0-2.39.15-2.39,1.42,0,.66.61,1,1.37,1Z"/><path class="cls-12" d="M199.2,379.82h2v1.11h.05a3.07,3.07,0,0,1,2.69-1.27c1.93,0,2.74,1.32,2.74,3.2V388h-2.13v-4.37c0-1,0-2.33-1.37-2.33-1.53,0-1.88,1.67-1.88,2.74v4H199.2v-8.17Z"/><path class="cls-12" d="M214.19,381.59a3.72,3.72,0,0,0-1.47-.3c-1.32,0-2.14,1.06-2.14,2.57s.71,2.69,2.19,2.69a5,5,0,0,0,1.71-.4l.05,1.78a8.11,8.11,0,0,1-2.08.25c-2.7,0-4.07-1.83-4.07-4.28s1.42-4.22,4-4.22a6.35,6.35,0,0,1,2.08.25l-.2,1.71Z"/><path class="cls-12" d="M222.32,387.54a5.36,5.36,0,0,1-2.8.66,3.9,3.9,0,0,1-4.28-4.22c0-2.39,1.22-4.28,3.76-4.28,3.05,0,3.91,2.08,3.91,4.93h-5.63a2.11,2.11,0,0,0,2.17,2h.16a5.37,5.37,0,0,0,2.69-.82v1.72Zm-1.43-4.4c0-1-.55-1.93-1.71-1.93A1.87,1.87,0,0,0,217.3,383v.1Z"/><polygon class="cls-13" points="226.44 391.85 231.87 391.85 231.01 395.87 235.02 395.87 233.96 400.89 229.94 400.89 229.18 404.66 224.76 404.66 225.01 403.34 228.11 403.34 228.87 399.63 232.89 399.63 233.4 397.14 229.38 397.14 230.19 393.18 227.5 393.18 226.69 397.14 225.32 397.14 226.44 391.85 226.44 391.85"/><polygon class="cls-13" points="223.13 404.66 223.84 401.36 185.99 401.36 185.28 404.66 223.13 404.66 223.13 404.66"/><path class="cls-12" d="M204.64,396h-1.12v.05l-1.37,6.35v.05h1.42v-.05s.41-1.93.46-2.08h.66a2.92,2.92,0,0,0,2.13-.76,2.2,2.2,0,0,0,.67-1.62,1.69,1.69,0,0,0-.46-1.23,3.43,3.43,0,0,0-2.39-.71Zm.05,1.12h.36a1,1,0,0,1,.71.3.72.72,0,0,1,.25.66,1.26,1.26,0,0,1-1.37,1.13h-.36Z"/><path class="cls-12" d="M213.22,396.63a2.77,2.77,0,0,0-2-.71,3.23,3.23,0,0,0-2.69,1.22,4.5,4.5,0,0,0-1,2.79,2.77,2.77,0,0,0,.75,2,2.53,2.53,0,0,0,1.84.72,3.83,3.83,0,0,0,2.74-1.08,4.54,4.54,0,0,0,1.06-2.88,2.87,2.87,0,0,0-.71-2Zm-2.94,4.88a1.18,1.18,0,0,1-.85-.36A1.62,1.62,0,0,1,209,400a3.6,3.6,0,0,1,.92-2.4,1.75,1.75,0,0,1,1.27-.55,1.25,1.25,0,0,1,.86.35,1.61,1.61,0,0,1,.4,1.17c0,1.17-.75,2.95-2.18,2.95Z"/><path class="cls-12" d="M189.75,396H188v.05l-1.32,6.35v.05h2.19a3.42,3.42,0,0,0,2.89-1.16,4.22,4.22,0,0,0,.82-2.34c.1-1.83-.86-2.8-2.9-2.95Zm-.5,1.12h.1a2.09,2.09,0,0,1,1.52.46,1.13,1.13,0,0,1,.31,1c-.05,1.87-.86,2.74-2.57,2.74h-.26l.86-4.22Z"/><path class="cls-12" d="M218.77,396.22a4.59,4.59,0,0,0-1.72-.3c-1.12,0-2.44.51-2.44,2a1.81,1.81,0,0,0,1.28,1.67c.45.26.86.52.86,1a1,1,0,0,1-1,1h-.09a3.73,3.73,0,0,1-1.52-.46h-.06l-.05.05-.3,1.07h0l.05.05a5.78,5.78,0,0,0,1.83.36,2.83,2.83,0,0,0,2.08-.71,2,2,0,0,0,.56-1.47,2.08,2.08,0,0,0-1.32-1.83c-.45-.26-.86-.51-.86-.92a.48.48,0,0,1,.16-.36,1.38,1.38,0,0,1,.85-.3,3,3,0,0,1,1.32.36h.06v-.06l.3-1.06.05-.05Z"/><polygon class="cls-12" points="200.57 396.02 196.87 396.02 196.82 396.02 196.82 396.07 195.45 402.42 195.45 402.47 195.55 402.47 199.3 402.47 199.35 402.47 199.35 402.42 199.56 401.46 199.61 401.36 199.56 401.36 199.51 401.36 197.07 401.36 197.43 399.73 199.61 399.73 199.66 399.73 199.66 399.68 199.87 398.67 199.87 398.61 199.87 398.56 199.82 398.56 197.68 398.56 197.98 397.14 200.43 397.14 200.48 397.14 200.48 397.09 200.67 396.07 200.67 396.02 200.62 396.02 200.57 396.02 200.57 396.02"/><polygon class="cls-12" points="195.64 396.02 195.6 396.02 195.55 396.02 194.23 396.02 194.18 396.02 194.18 396.07 192.86 402.42 192.81 402.47 192.86 402.47 192.91 402.47 194.23 402.47 194.28 402.47 194.28 402.42 195.6 396.07 195.64 396.02 195.64 396.02"/><path class="cls-12" d="M224.2,396h-5v.05l-.2,1-.06.05h1.79l-1.13,5.28v.05H221l.05-.05,1.12-5.28H224l.05-.05.2-1V396Z"/></g><g id="Layer_1-2" data-name="Layer 1-2"><path class="cls-14" d="M38.38,296.17v-3.51a2.09,2.09,0,0,0-1.94-2.23h-.27a2.14,2.14,0,0,0-2,1,2.06,2.06,0,0,0-1.85-1,1.82,1.82,0,0,0-1.63.86v-.69H29.52v5.58h1.23v-3.09a1.3,1.3,0,0,1,1.12-1.47h.24c.81,0,1.22.53,1.22,1.48v3.1h1.22v-3.11a1.32,1.32,0,0,1,1.14-1.47h.23c.85,0,1.23.53,1.23,1.48v3.1Zm18.13-5.58h-2v-1.72H53.29v1.72H52.18v1.1h1.13v2.57c0,1.3.5,2.07,1.94,2.07a2.89,2.89,0,0,0,1.52-.44l-.35-1a2.19,2.19,0,0,1-1.08.32c-.58,0-.81-.38-.81-.93v-2.57h2Zm10.35-.16a1.64,1.64,0,0,0-1.47.86v-.68h-1.2v5.58H65.4V293c0-.92.4-1.44,1.17-1.44a2.12,2.12,0,0,1,.75.14l.38-1.17a3.17,3.17,0,0,0-.86-.15ZM51.2,291a4.3,4.3,0,0,0-2.27-.58c-1.42,0-2.34.68-2.34,1.79,0,.91.68,1.47,1.93,1.65l.58.08c.67.09,1,.27,1,.58s-.44.68-1.27.68a3,3,0,0,1-1.86-.59l-.58.95a4,4,0,0,0,2.42.72c1.61,0,2.57-.76,2.57-1.81s-.73-1.5-1.94-1.72l-.59-.08c-.53-.07-.95-.17-.95-.55s.41-.65,1.07-.65a3.55,3.55,0,0,1,1.71.48Zm32.54-.58a1.65,1.65,0,0,0-1.45.86v-.68h-1.2v5.58h1.2V293c0-.92.4-1.44,1.17-1.44a2.18,2.18,0,0,1,.76.14l.37-1.17a3,3,0,0,0-.85-.15Zm-15.65,2.92a2.83,2.83,0,0,0,2.71,2.93h.27a2.9,2.9,0,0,0,2-.66l-.58-1a2.49,2.49,0,0,1-1.46.51,1.79,1.79,0,0,1,0-3.58,2.49,2.49,0,0,1,1.46.51l.58-1a3,3,0,0,0-2-.67,2.83,2.83,0,0,0-3,2.66h0v.27Zm11.37,0v-2.77H78.24v.71a2.08,2.08,0,0,0-1.71-.86,2.92,2.92,0,0,0,0,5.84,2.08,2.08,0,0,0,1.71-.82v.68h1.22Zm-4.52,0a1.72,1.72,0,1,1,0,.13v-.12Zm-14.65-2.92a2.92,2.92,0,0,0,.08,5.84h0a3.42,3.42,0,0,0,2.32-.76l-.59-.9a2.66,2.66,0,0,1-1.62.59,1.55,1.55,0,0,1-1.71-1.35v0h4.15v-.47a2.66,2.66,0,0,0-2.39-2.9h-.27Zm0,1.09a1.38,1.38,0,0,1,1.43,1.33v0H58.8a1.44,1.44,0,0,1,1.49-1.35Zm30.42,1.84v-5H89.54v3a2.08,2.08,0,0,0-1.71-.86,2.92,2.92,0,0,0-.32,5.84h.32a2.1,2.1,0,0,0,1.71-.82v.68h1.17Zm2,2a.59.59,0,0,1,.22.05.42.42,0,0,1,.18.11.57.57,0,0,1,.12.18.54.54,0,0,1,0,.43.94.94,0,0,1-.12.18.78.78,0,0,1-.18.11.59.59,0,0,1-.22.05.62.62,0,0,1-.53-.34.54.54,0,0,1,0-.43.57.57,0,0,1,.12-.18.58.58,0,0,1,.18-.11.52.52,0,0,1,.24-.05Zm0,1h.17a.41.41,0,0,0,.13-.1.43.43,0,0,0,0-.58.38.38,0,0,0-.13-.09.25.25,0,0,0-.17,0,.25.25,0,0,0-.17,0,.34.34,0,0,0-.14.09.43.43,0,0,0,0,.58.24.24,0,0,0,.14.1h.17Zm0-.7a.22.22,0,0,1,.15.06.11.11,0,0,1,0,.12.17.17,0,0,1,0,.1.17.17,0,0,1-.12,0l.17.2h-.13l-.17-.2h0v.2h-.11v-.52Zm-.13.11v.13h.2a0,0,0,0,0,0-.05,0,0,0,0,0,0-.05h-.07Zm-6.42-2.38a1.62,1.62,0,1,1,0,.14l0-.13Zm-41,0v-2.78H44v.71a2.11,2.11,0,0,0-1.76-.86,2.92,2.92,0,0,0,0,5.84,2.12,2.12,0,0,0,1.76-.82v.68h1.21Zm-4.51,0a1.72,1.72,0,1,1,0,.15.38.38,0,0,1,0-.15Z"/><g id="_Group_" data-name=" Group "><rect class="cls-15" x="50.81" y="248.05" width="18.39" height="33.05"/><path id="_Path_" data-name=" Path " class="cls-16" d="M52,264.58a21,21,0,0,1,8-16.53,21,21,0,1,0,0,33.05A21,21,0,0,1,52,264.58Z"/><path class="cls-17" d="M94,264.58A21,21,0,0,1,60,281.1a21,21,0,0,0,3.56-29.49l0,0A20.8,20.8,0,0,0,60,248.05a21,21,0,0,1,34,16.52Z"/><path class="cls-17" d="M92,277.57v-.67h.27v-.15h-.69v.15h.3v.67Zm1.35,0v-.85h-.21l-.25.59-.24-.59h-.19v.85h.16V277l.22.53H93l.23-.53v.61Z"/></g></g><g id="Layer_2-2" data-name="Layer 2-2" class="cls-8"><g id="Layer_1-2-2" data-name="Layer 1-2-2"><path class="cls-14" d="M38.38,356.17v-3.51a2.09,2.09,0,0,0-1.94-2.23h-.27a2.14,2.14,0,0,0-2,1,2.06,2.06,0,0,0-1.85-1,1.82,1.82,0,0,0-1.63.86v-.69H29.52v5.58h1.23v-3.09a1.3,1.3,0,0,1,1.12-1.47h.24c.81,0,1.22.53,1.22,1.48v3.1h1.22v-3.11a1.32,1.32,0,0,1,1.14-1.47h.23c.85,0,1.23.53,1.23,1.48v3.1Zm18.13-5.58h-2v-1.72H53.29v1.72H52.18v1.1h1.13v2.57c0,1.3.5,2.07,1.94,2.07a2.89,2.89,0,0,0,1.52-.44l-.35-1a2.19,2.19,0,0,1-1.08.32c-.58,0-.81-.38-.81-.93v-2.57h2Zm10.35-.16a1.64,1.64,0,0,0-1.47.86v-.68h-1.2v5.58H65.4V353c0-.92.4-1.44,1.17-1.44a2.12,2.12,0,0,1,.75.14l.38-1.17a3.17,3.17,0,0,0-.86-.15ZM51.2,351a4.3,4.3,0,0,0-2.27-.58c-1.42,0-2.34.68-2.34,1.79,0,.91.68,1.47,1.93,1.65l.58.08c.67.09,1,.27,1,.58s-.44.68-1.27.68a3,3,0,0,1-1.86-.59l-.58.95a4,4,0,0,0,2.42.72c1.61,0,2.57-.76,2.57-1.81s-.73-1.5-1.94-1.72l-.59-.08c-.53-.07-.95-.17-.95-.55s.41-.65,1.07-.65a3.55,3.55,0,0,1,1.71.48Zm32.54-.58a1.65,1.65,0,0,0-1.45.86v-.68h-1.2v5.58h1.2V353c0-.92.4-1.44,1.17-1.44a2.18,2.18,0,0,1,.76.14l.37-1.17a3,3,0,0,0-.85-.15Zm-15.65,2.92a2.83,2.83,0,0,0,2.71,2.93h.27a2.9,2.9,0,0,0,2-.66l-.58-1a2.49,2.49,0,0,1-1.46.51,1.79,1.79,0,0,1,0-3.58,2.49,2.49,0,0,1,1.46.51l.58-1a3,3,0,0,0-2-.67,2.83,2.83,0,0,0-3,2.66h0v.27Zm11.37,0v-2.77H78.24v.71a2.08,2.08,0,0,0-1.71-.86,2.92,2.92,0,0,0,0,5.84,2.08,2.08,0,0,0,1.71-.82v.68h1.22Zm-4.52,0a1.72,1.72,0,1,1,0,.13v-.12Zm-14.65-2.92a2.92,2.92,0,0,0,.08,5.84h0a3.42,3.42,0,0,0,2.32-.76l-.59-.9a2.66,2.66,0,0,1-1.62.59,1.55,1.55,0,0,1-1.71-1.35v0h4.15v-.47a2.66,2.66,0,0,0-2.39-2.9h-.27Zm0,1.09a1.38,1.38,0,0,1,1.43,1.33v0H58.8a1.44,1.44,0,0,1,1.49-1.35Zm30.42,1.84v-5H89.54v3a2.08,2.08,0,0,0-1.71-.86,2.92,2.92,0,0,0-.32,5.84h.32a2.1,2.1,0,0,0,1.71-.82v.68h1.17Zm2,2a.59.59,0,0,1,.22.05.42.42,0,0,1,.18.11.57.57,0,0,1,.12.18.54.54,0,0,1,0,.43.94.94,0,0,1-.12.18.78.78,0,0,1-.18.11.59.59,0,0,1-.22.05.62.62,0,0,1-.53-.34.54.54,0,0,1,0-.43.57.57,0,0,1,.12-.18.58.58,0,0,1,.18-.11.52.52,0,0,1,.24-.05Zm0,1h.17a.41.41,0,0,0,.13-.1.43.43,0,0,0,0-.58.38.38,0,0,0-.13-.09.25.25,0,0,0-.17,0,.25.25,0,0,0-.17,0,.34.34,0,0,0-.14.09.43.43,0,0,0,0,.58.24.24,0,0,0,.14.1h.17Zm0-.7a.22.22,0,0,1,.15.06.11.11,0,0,1,0,.12.17.17,0,0,1,0,.1.17.17,0,0,1-.12,0l.17.2h-.13l-.17-.2h0v.2h-.11v-.52Zm-.13.11v.13h.2a0,0,0,0,0,0-.05,0,0,0,0,0,0-.05h-.07Zm-6.42-2.38a1.62,1.62,0,1,1,0,.14l0-.13Zm-41,0v-2.78H44v.71a2.11,2.11,0,0,0-1.76-.86,2.92,2.92,0,0,0,0,5.84,2.12,2.12,0,0,0,1.76-.82v.68h1.21Zm-4.51,0a1.72,1.72,0,1,1,0,.15.38.38,0,0,1,0-.15Z"/><g id="_Group_2" data-name=" Group 2"><rect class="cls-15" x="50.81" y="308.05" width="18.39" height="33.05"/><path id="_Path_2" data-name=" Path 2" class="cls-16" d="M52,324.58a21,21,0,0,1,8-16.53,21,21,0,1,0,0,33.05A21,21,0,0,1,52,324.58Z"/><path class="cls-17" d="M94,324.58A21,21,0,0,1,60,341.1a21,21,0,0,0,3.56-29.49l0,0A20.8,20.8,0,0,0,60,308.05a21,21,0,0,1,34,16.52Z"/><path class="cls-17" d="M92,337.57v-.67h.27v-.15h-.69v.15h.3v.67Zm1.35,0v-.85h-.21l-.25.59-.24-.59h-.19v.85h.16V337l.22.53H93l.23-.53v.61Z"/></g></g></g><polygon class="cls-18" points="189.23 161.18 170.8 161.18 170.8 128.06 189.23 128.06 189.23 161.18"/><path class="cls-19" d="M172,144.62A21,21,0,0,1,180,128.06a21.07,21.07,0,1,0,0,33.08A21,21,0,0,1,172,144.58"/><path class="cls-20" d="M214.1,144.62A21.06,21.06,0,0,1,180,161.14a21.07,21.07,0,0,0,3.55-29.57A21.29,21.29,0,0,0,180,128a21.06,21.06,0,0,1,34.08,16.56"/><path class="cls-21" d="M195.45,170.57a2.45,2.45,0,0,1,.85.15l-.37,1.15a1.82,1.82,0,0,0-.77-.14c-.79,0-1.19.51-1.19,1.44v3.13h-1.18v-5.59H194v.68a1.63,1.63,0,0,1,1.47-.85Zm-4.5,1.25h-2v2.57c0,.56.2.94.8.94a2.16,2.16,0,0,0,1.08-.32l.36,1.05a2.85,2.85,0,0,1-1.53.42c-1.44,0-1.94-.77-1.94-2.06v-2.57h-1.11v-1.12h1.11V169H189v1.71h2v1.09ZM175.37,173a1.44,1.44,0,0,1,1.49-1.35,1.39,1.39,0,0,1,1.42,1.35h-2.91Zm4.17.5a2.69,2.69,0,0,0-2.42-2.93h-.24a2.94,2.94,0,0,0,.09,5.87,3.38,3.38,0,0,0,2.29-.78l-.6-.9a2.65,2.65,0,0,1-1.62.58,1.54,1.54,0,0,1-1.72-1.35v0h4.15a3.53,3.53,0,0,0,0-.46Zm5.35-1.37a3.56,3.56,0,0,0-1.72-.48c-.67,0-1.07.25-1.07.65s.42.48,1,.56l.58.07c1.21.18,2,.7,2,1.72s-.94,1.82-2.57,1.82a4,4,0,0,1-2.43-.72l.58-.95a3,3,0,0,0,1.87.59c.85,0,1.27-.24,1.27-.68s-.32-.49-1-.58l-.58-.09c-1.25-.17-1.93-.74-1.93-1.65,0-1.11.91-1.79,2.33-1.79a4.16,4.16,0,0,1,2.28.59l-.52,1Zm15-.41a1.72,1.72,0,0,0-.71.13,1.59,1.59,0,0,0-.55.36,1.79,1.79,0,0,0-.37.58,2,2,0,0,0-.14.73,2.06,2.06,0,0,0,.14.73,1.61,1.61,0,0,0,.37.56,1.64,1.64,0,0,0,.55.38,2,2,0,0,0,1.4,0,1.79,1.79,0,0,0,.56-.38,1.61,1.61,0,0,0,.37-.56,2.06,2.06,0,0,0,.14-.73,1.83,1.83,0,0,0-.14-.73,1.69,1.69,0,0,0-.37-.58,1.74,1.74,0,0,0-.56-.36A1.84,1.84,0,0,0,199.9,171.73Zm0-1.16a3.31,3.31,0,0,1,1.2.22,3.19,3.19,0,0,1,1,.63,2.84,2.84,0,0,1,.63.93,3.09,3.09,0,0,1,0,2.35,2.85,2.85,0,0,1-1.59,1.55,3.24,3.24,0,0,1-2.41,0,2.58,2.58,0,0,1-.95-.61,2.86,2.86,0,0,1-.64-.94,3.09,3.09,0,0,1,0-2.35,2.72,2.72,0,0,1,.64-.93,2.92,2.92,0,0,1,.95-.63A3.29,3.29,0,0,1,199.9,170.57Zm-31.63,2.94a1.75,1.75,0,1,1,0,.07Zm4.52,0v-2.8h-1.21v.68a2.1,2.1,0,0,0-1.77-.85,2.94,2.94,0,0,0,0,5.87,2.15,2.15,0,0,0,1.77-.82v.68h1.21Zm-6.85,2.79v-3.51a2.08,2.08,0,0,0-1.92-2.22h-.29a2.18,2.18,0,0,0-2,1,2.07,2.07,0,0,0-1.85-1,1.84,1.84,0,0,0-1.64.86v-.7h-1.22v5.6h1.24v-3.19a1.3,1.3,0,0,1,1.11-1.47,1,1,0,0,1,.25,0c.82,0,1.22.52,1.22,1.47v3.11h1.23v-3.1a1.31,1.31,0,0,1,1.13-1.47h.24c.85,0,1.23.52,1.23,1.47v3.11Z"/><g class="cls-8"><polygon class="cls-18" points="189.23 221.18 170.8 221.18 170.8 188.06 189.23 188.06 189.23 221.18"/><path class="cls-19" d="M172,204.62A21,21,0,0,1,180,188.06a21.07,21.07,0,1,0,0,33.08A21,21,0,0,1,172,204.58"/><path class="cls-20" d="M214.1,204.62A21.06,21.06,0,0,1,180,221.14a21.07,21.07,0,0,0,3.55-29.57A21.29,21.29,0,0,0,180,188a21.07,21.07,0,0,1,34.08,16.56"/><path class="cls-21" d="M195.45,230.57a2.25,2.25,0,0,1,.85.16l-.37,1.14a1.82,1.82,0,0,0-.77-.14c-.79,0-1.19.51-1.19,1.44v3.14h-1.18v-5.6H194v.68a1.65,1.65,0,0,1,1.47-.85Zm-4.5,1.25h-2v2.53c0,.56.2.94.8.94a2.38,2.38,0,0,0,1.08-.32l.36,1a2.86,2.86,0,0,1-1.53.43c-1.44,0-1.94-.77-1.94-2.06v-2.57h-1.11v-1.12h1.11V229H189v1.71h2v1.12ZM175.37,233a1.45,1.45,0,0,1,1.49-1.35,1.39,1.39,0,0,1,1.42,1.35h-2.91Zm4.17.5a2.7,2.7,0,0,0-2.42-2.93h-.24a2.94,2.94,0,0,0,.09,5.87,3.38,3.38,0,0,0,2.29-.78l-.6-.85a2.71,2.71,0,0,1-1.62.58,1.55,1.55,0,0,1-1.72-1.35v0h4.15a3.69,3.69,0,0,0,0-.47Zm5.35-1.37a3.56,3.56,0,0,0-1.72-.48c-.67,0-1.07.25-1.07.65s.42.48,1,.56l.58.08c1.21.18,2,.69,2,1.67s-.94,1.82-2.57,1.82a4.08,4.08,0,0,1-2.43-.72l.58-.95a3,3,0,0,0,1.87.58c.85,0,1.27-.24,1.27-.67s-.32-.49-1-.59l-.58-.08c-1.25-.17-1.93-.74-1.93-1.65,0-1.11.91-1.79,2.33-1.79a4.15,4.15,0,0,1,2.28.58l-.52,1Zm15-.41a1.9,1.9,0,0,0-.71.13,1.49,1.49,0,0,0-.55.37,1.65,1.65,0,0,0-.37.57,2,2,0,0,0-.14.73,2.06,2.06,0,0,0,.14.73,1.61,1.61,0,0,0,.37.56,1.64,1.64,0,0,0,.55.38,2,2,0,0,0,1.4,0,1.79,1.79,0,0,0,.56-.38,1.61,1.61,0,0,0,.37-.56,2.06,2.06,0,0,0,.14-.73,1.83,1.83,0,0,0-.14-.73,1.65,1.65,0,0,0-.37-.57,1.61,1.61,0,0,0-.56-.37A1.84,1.84,0,0,0,199.9,231.73Zm0-1.16a3.31,3.31,0,0,1,1.2.22,3.19,3.19,0,0,1,1,.63,2.94,2.94,0,0,1,.63.93,3.09,3.09,0,0,1,0,2.35,2.79,2.79,0,0,1-1.59,1.55,3.24,3.24,0,0,1-2.41,0,2.58,2.58,0,0,1-.95-.61,2.86,2.86,0,0,1-.64-.94,3.09,3.09,0,0,1,0-2.35,2.82,2.82,0,0,1,.64-.93,2.92,2.92,0,0,1,.95-.63A3.29,3.29,0,0,1,199.9,230.57Zm-31.63,2.94a1.75,1.75,0,1,1,0,.07Zm4.52,0v-2.8h-1.21v.68a2.1,2.1,0,0,0-1.77-.85,2.94,2.94,0,0,0,0,5.87,2.15,2.15,0,0,0,1.77-.82v.68h1.21Zm-6.85,2.8v-3.52a2.09,2.09,0,0,0-1.92-2.22h-.29a2.17,2.17,0,0,0-2,1,2.06,2.06,0,0,0-1.85-1,1.84,1.84,0,0,0-1.64.86v-.7h-1.22v5.6h1.24v-3.19a1.3,1.3,0,0,1,1.11-1.47,1,1,0,0,1,.25,0c.82,0,1.22.52,1.22,1.47v3.12h1.23v-3.11a1.31,1.31,0,0,1,1.13-1.47h.24c.85,0,1.23.52,1.23,1.47v3.12Z"/></g></g></g></svg>