<svg xmlns="http://www.w3.org/2000/svg" viewBox="0 0 280 570"><defs><style>.cls-1{fill:#598fc7;}.cls-13,.cls-2{fill:#fff;}.cls-3{fill:#426b96;}.cls-4{fill:#203c63;}.cls-5{opacity:0.5;}.cls-6{fill:#2d6eb1;}.cls-7{fill:#eea655;}.cls-8{opacity:0.75;}.cls-10,.cls-9{fill:#fad355;}.cls-10,.cls-11,.cls-12,.cls-13{fill-rule:evenodd;}.cls-12{fill:#da4538;}.cls-14{fill:#19181c;}.cls-15{fill:#e3723e;}.cls-16{fill:#db3c3a;}.cls-17{fill:#eda14a;}.cls-18{fill:#6870af;}.cls-19{fill:#c73e32;}.cls-20{fill:#4498d0;}.cls-21{fill:#000003;}</style></defs><title>spritesheet</title><g id="Calque_2" data-name="Calque 2"><g id="Calque_1-2" data-name="Calque 1"><rect class="cls-1" x="120" width="60" height="60"/><path class="cls-2" d="M135.34,10.28h29.32a5.08,5.08,0,0,1,5.06,5.06V44.66a5.08,5.08,0,0,1-5.06,5.06H135.34a5.08,5.08,0,0,1-5.06-5.06V15.34A5.08,5.08,0,0,1,135.34,10.28ZM159,14.66a1.78,1.78,0,0,0-1.77,1.78v4.25A1.77,1.77,0,0,0,159,22.46h4.46a1.77,1.77,0,0,0,1.77-1.77V16.44a1.78,1.78,0,0,0-1.77-1.78ZM165.26,27h-3.47a11.49,11.49,0,0,1,.51,3.39,12.27,12.27,0,0,1-24.52,0,11.49,11.49,0,0,1,.51-3.39h-3.62V43.62a1.56,1.56,0,0,0,1.56,1.56h27.46a1.56,1.56,0,0,0,1.57-1.56ZM150,22.24A7.68,7.68,0,1,0,158,29.92,7.8,7.8,0,0,0,150,22.24Z"/><rect class="cls-1" x="180" width="60" height="60"/><path class="cls-2" d="M210,8.3a21.7,21.7,0,0,0-8.71,41.58,19.09,19.09,0,0,1,.38-5c.42-1.76,2.79-11.82,2.79-11.82a8.41,8.41,0,0,1-.69-3.44c0-3.21,1.86-5.61,4.18-5.61,2,0,2.93,1.48,2.93,3.25,0,2-1.27,5-1.92,7.71a3.36,3.36,0,0,0,3.43,4.17c4.11,0,6.88-5.27,6.88-11.53,0-4.76-3.21-8.32-9-8.32a10.28,10.28,0,0,0-10.69,10.39A6.22,6.22,0,0,0,201,34a1.06,1.06,0,0,1,.31,1.21c-.1.4-.34,1.36-.45,1.74a.74.74,0,0,1-1.08.54c-3-1.23-4.45-4.55-4.45-8.29,0-6.16,5.2-13.55,15.52-13.55,8.28,0,13.73,6,13.73,12.43,0,8.51-4.73,14.87-11.71,14.87a6.25,6.25,0,0,1-5.3-2.7s-1.26,5-1.52,6a18.3,18.3,0,0,1-2.19,4.65A21.7,21.7,0,1,0,210,8.3Z"/><rect class="cls-1" width="60" height="60"/><path class="cls-2" d="M41.91,32.27l1.18-9.19H34V17.22c0-2.66.74-4.47,4.55-4.47h4.86V4.53a65.52,65.52,0,0,0-7.08-.36c-7,0-11.81,4.28-11.81,12.14v6.77H16.59v9.19h7.93V55.83H34V32.27Z"/><rect class="cls-1" x="60" width="60" height="60"/><path class="cls-2" d="M110,17.6a16.51,16.51,0,0,1-4.71,1.29,8.26,8.26,0,0,0,3.6-4.54,16.46,16.46,0,0,1-5.2,2,8.22,8.22,0,0,0-14,7.48,23.25,23.25,0,0,1-16.91-8.57,8.2,8.2,0,0,0,2.53,11,8.3,8.3,0,0,1-3.71-1v.1a8.22,8.22,0,0,0,6.58,8,8.1,8.1,0,0,1-2.16.29,7.91,7.91,0,0,1-1.55-.15,8.23,8.23,0,0,0,7.67,5.7A16.48,16.48,0,0,1,72,42.68a18.1,18.1,0,0,1-2-.11,23.3,23.3,0,0,0,12.58,3.68c15.1,0,23.35-12.5,23.35-23.35,0-.35,0-.7,0-1.06A16.66,16.66,0,0,0,110,17.6Z"/><rect class="cls-2" x="120" y="60" width="60" height="60"/><path class="cls-1" d="M135.34,70.28h29.32a5.08,5.08,0,0,1,5.06,5.06v29.32a5.08,5.08,0,0,1-5.06,5.06H135.34a5.08,5.08,0,0,1-5.06-5.06V75.34A5.08,5.08,0,0,1,135.34,70.28ZM159,74.66a1.78,1.78,0,0,0-1.77,1.78v4.25A1.77,1.77,0,0,0,159,82.46h4.46a1.77,1.77,0,0,0,1.77-1.77V76.44a1.78,1.78,0,0,0-1.77-1.78ZM165.26,87h-3.47a11.49,11.49,0,0,1,.51,3.39,12.27,12.27,0,0,1-24.52,0,11.49,11.49,0,0,1,.51-3.39h-3.62v16.66a1.56,1.56,0,0,0,1.56,1.56h27.46a1.56,1.56,0,0,0,1.57-1.56ZM150,82.24A7.68,7.68,0,1,0,158,89.92,7.8,7.8,0,0,0,150,82.24Z"/><rect class="cls-2" x="180" y="60" width="60" height="60"/><path class="cls-1" d="M210,68.3a21.7,21.7,0,0,0-8.71,41.58,19.09,19.09,0,0,1,.38-5c.42-1.76,2.79-11.82,2.79-11.82a8.41,8.41,0,0,1-.69-3.44c0-3.21,1.86-5.61,4.18-5.61,2,0,2.93,1.48,2.93,3.25,0,2-1.27,5-1.92,7.71a3.36,3.36,0,0,0,3.43,4.17c4.11,0,6.88-5.27,6.88-11.53,0-4.76-3.21-8.32-9-8.32a10.28,10.28,0,0,0-10.69,10.39A6.22,6.22,0,0,0,201,94a1.06,1.06,0,0,1,.31,1.21c-.1.4-.34,1.36-.45,1.74a.74.74,0,0,1-1.08.54c-3-1.23-4.45-4.55-4.45-8.29,0-6.16,5.2-13.55,15.52-13.55,8.28,0,13.73,6,13.73,12.43,0,8.51-4.73,14.87-11.71,14.87a6.25,6.25,0,0,1-5.3-2.7s-1.26,5-1.52,6a18.3,18.3,0,0,1-2.19,4.65A21.7,21.7,0,1,0,210,68.3Z"/><rect class="cls-2" y="60" width="60" height="60"/><path class="cls-1" d="M41.91,92.27l1.18-9.19H34V77.22c0-2.66.74-4.47,4.55-4.47h4.86V64.53a65.52,65.52,0,0,0-7.08-.36c-7,0-11.81,4.28-11.81,12.14v6.77H16.59v9.19h7.93v23.56H34V92.27Z"/><rect class="cls-2" x="60" y="60" width="60" height="60"/><path class="cls-1" d="M110,77.6a16.51,16.51,0,0,1-4.71,1.29,8.26,8.26,0,0,0,3.6-4.54,16.46,16.46,0,0,1-5.2,2,8.22,8.22,0,0,0-14,7.48,23.25,23.25,0,0,1-16.91-8.57,8.2,8.2,0,0,0,2.53,11,8.3,8.3,0,0,1-3.71-1v.1a8.22,8.22,0,0,0,6.58,8,8.1,8.1,0,0,1-2.16.29,7.91,7.91,0,0,1-1.55-.15,8.23,8.23,0,0,0,7.67,5.7A16.48,16.48,0,0,1,72,102.68a18.1,18.1,0,0,1-2-.11,23.3,23.3,0,0,0,12.58,3.68c15.1,0,23.35-12.5,23.35-23.35,0-.35,0-.7,0-1.06A16.66,16.66,0,0,0,110,77.6Z"/><rect class="cls-2" y="120" width="140" height="90"/><rect class="cls-2" x="140" y="300" width="140" height="90"/><path class="cls-3" d="M237,340.27a8.92,8.92,0,0,0-4.16-.74,18.08,18.08,0,0,0-2.83.22c-.69.11-.76.12-1.19.22a1.35,1.35,0,0,0-1,1.08l-.29,1.17c-.16.75.27.72.46.66a9.6,9.6,0,0,1,1.38-.41,10.71,10.71,0,0,1,2.19-.3,5.68,5.68,0,0,1,2.11.3,1.09,1.09,0,0,1,.71,1.06.88.88,0,0,1,0,.33c0,.09-.11.18-.34.21-1.33.08-2.28.2-3.43.37a10.7,10.7,0,0,0-3,.81,4.64,4.64,0,0,0-2,1.58,4.42,4.42,0,0,0-.67,2.44,2.86,2.86,0,0,0,1,2.21,3.57,3.57,0,0,0,2.45.84,6.74,6.74,0,0,0,1.47-.14,8.24,8.24,0,0,0,1.12-.38,6.73,6.73,0,0,0,1-.53l.88-.59v0l-.09.37h0a.69.69,0,0,0,.62.87h2.21a1.24,1.24,0,0,0,1-.88l1.7-7.34a4.2,4.2,0,0,0,.09-.61c0-.23,0-.42,0-.56A2.48,2.48,0,0,0,237,340.27ZM232.84,349a7.23,7.23,0,0,1-.92.47,3.34,3.34,0,0,1-1.21.26,2.65,2.65,0,0,1-1.33-.26.87.87,0,0,1-.45-.86,1.82,1.82,0,0,1,.33-1.14,2.42,2.42,0,0,1,1-.68,9.52,9.52,0,0,1,1.53-.34c.54-.07,1.59-.19,1.72-.19s.23-.07.17.28c0,.16-.34,1.41-.48,2A1.16,1.16,0,0,1,232.84,349Z"/><path class="cls-4" d="M207.68,339.69a2,2,0,0,0-1.46.89l-3.67,6.3c-.18.31-.36.11-.39,0s-1-6.26-1-6.26a1.29,1.29,0,0,0-1.28-.91h-2.08a.69.69,0,0,0-.7.89s1.59,9,1.9,11.14c.15,1.18,0,1.39,0,1.39l-2.06,3.59c-.3.49-.14.89.36.89h2.42a2,2,0,0,0,1.46-.89l9.28-15.7s.89-1.34.07-1.33h-2.8"/><path class="cls-4" d="M178.37,342.88a4.83,4.83,0,0,1-2.94.78h-.57a.7.7,0,0,1-.71-.9l.7-3a1.17,1.17,0,0,1,1.11-.88h.77a3.62,3.62,0,0,1,2,.46,1.51,1.51,0,0,1,.67,1.38,2.48,2.48,0,0,1-1,2.19m5-4.66a3.58,3.58,0,0,0-1.28-1.37,5.9,5.9,0,0,0-2-.74,16.73,16.73,0,0,0-2.75-.22h-4.86a1.22,1.22,0,0,0-1.12.89L168.09,351a.69.69,0,0,0,.71.89h2.33a1.18,1.18,0,0,0,1.11-.89l.81-3.46a1.19,1.19,0,0,1,1.11-.89h.66a11,11,0,0,0,6.65-1.75,5.45,5.45,0,0,0,2.38-4.62,4.41,4.41,0,0,0-.44-2.1"/><path class="cls-3" d="M220.69,342.94a4.92,4.92,0,0,1-2.94.76h-.58a.69.69,0,0,1-.71-.88l.7-3a1.18,1.18,0,0,1,1.11-.88H219a3.91,3.91,0,0,1,2,.45,1.6,1.6,0,0,1,.68,1.39,2.58,2.58,0,0,1-1.05,2.2m5-4.67a3.53,3.53,0,0,0-1.29-1.37,5.77,5.77,0,0,0-2-.74,15.66,15.66,0,0,0-2.74-.22h-4.88a1.23,1.23,0,0,0-1.11.89L210.4,351.1a.69.69,0,0,0,.7.88h2.34a1.22,1.22,0,0,0,1.12-.88l.79-3.46a1.19,1.19,0,0,1,1.12-.89h.66a11,11,0,0,0,6.66-1.75,5.5,5.5,0,0,0,2.37-4.63,4.56,4.56,0,0,0-.44-2.1"/><path class="cls-4" d="M194.64,340.26a9,9,0,0,0-4.17-.74,18,18,0,0,0-2.82.22c-.69.11-.76.12-1.19.22a1.37,1.37,0,0,0-1,1.08l-.28,1.17c-.16.75.27.71.46.66a11.14,11.14,0,0,1,1.38-.41,10,10,0,0,1,2.19-.3,5.68,5.68,0,0,1,2.11.3,1.09,1.09,0,0,1,.71,1.06.88.88,0,0,1,0,.33c0,.09-.12.18-.34.21-1.33.08-2.28.2-3.44.37a10.72,10.72,0,0,0-3,.81,4.64,4.64,0,0,0-2,1.58,4.34,4.34,0,0,0-.67,2.44,2.86,2.86,0,0,0,.95,2.2,3.56,3.56,0,0,0,2.46.85,6.63,6.63,0,0,0,1.46-.14,7.91,7.91,0,0,0,1.13-.38,6,6,0,0,0,1-.54l.88-.58v0l-.09.37h0a.68.68,0,0,0,.62.87h2.21a1.21,1.21,0,0,0,1-.88l1.71-7.35a4.38,4.38,0,0,0,.08-.6,3.1,3.1,0,0,0,0-.56A2.45,2.45,0,0,0,194.64,340.26ZM190.52,349a6.18,6.18,0,0,1-.92.48,3.35,3.35,0,0,1-1.22.26,2.64,2.64,0,0,1-1.32-.26.9.9,0,0,1-.46-.87,1.75,1.75,0,0,1,.34-1.13,2.45,2.45,0,0,1,1-.68,8.88,8.88,0,0,1,1.54-.34c.53-.07,1.58-.19,1.72-.19s.22-.07.16.28c0,.16-.33,1.41-.47,2A1.07,1.07,0,0,1,190.52,349Z"/><path class="cls-3" d="M245,336.06h-2.09a1.2,1.2,0,0,0-1.09.81l0,.08-.12.52-2.88,13.06c-.07.3-.11.5-.13.55h0a.68.68,0,0,0,.62.86v0h2.16a1.2,1.2,0,0,0,1.09-.82l0-.07,3.12-14.14h0A.69.69,0,0,0,245,336.06Z"/><path class="cls-3" d="M248.16,338.94l-.23,0a1,1,0,0,1-.23,0,.72.72,0,0,1-.53-.18.86.86,0,0,1-.18-.6V337h-.26v-.32H247V336h.38v.65h.79V337h-.79v1c0,.12,0,.22,0,.28a.42.42,0,0,0,.06.19.28.28,0,0,0,.12.12.65.65,0,0,0,.24,0,.63.63,0,0,0,.19,0,.64.64,0,0,0,.15-.05h0Z"/><path class="cls-3" d="M251.93,339h-.38v-1.29a2.71,2.71,0,0,0,0-.29.53.53,0,0,0-.06-.21.24.24,0,0,0-.13-.13.58.58,0,0,0-.25-.05.72.72,0,0,0-.32.08,1.94,1.94,0,0,0-.33.2.37.37,0,0,1,0,.11.49.49,0,0,1,0,.12V339h-.38v-1.29a2.64,2.64,0,0,0,0-.29.81.81,0,0,0,0-.21.32.32,0,0,0-.14-.14.76.76,0,0,0-.25,0,.6.6,0,0,0-.31.08,1.79,1.79,0,0,0-.32.19V339h-.38v-2.27H249v.25a1.45,1.45,0,0,1,.36-.23.81.81,0,0,1,.38-.08.8.8,0,0,1,.39.09.62.62,0,0,1,.24.27,2.34,2.34,0,0,1,.42-.28,1.15,1.15,0,0,1,.41-.08.64.64,0,0,1,.55.22,1,1,0,0,1,.18.63Z"/><g class="cls-5"><rect class="cls-2" x="140" y="390" width="140" height="90"/><path class="cls-3" d="M237,430.27a8.92,8.92,0,0,0-4.16-.74,18.08,18.08,0,0,0-2.83.22c-.69.11-.76.12-1.19.22a1.35,1.35,0,0,0-1,1.08l-.29,1.17c-.16.75.27.72.46.66a9.6,9.6,0,0,1,1.38-.41,10.71,10.71,0,0,1,2.19-.3,5.68,5.68,0,0,1,2.11.3,1.09,1.09,0,0,1,.71,1.06.88.88,0,0,1,0,.33c0,.09-.11.18-.34.21-1.33.08-2.28.2-3.43.37a10.7,10.7,0,0,0-3,.81,4.64,4.64,0,0,0-2,1.58,4.42,4.42,0,0,0-.67,2.44,2.86,2.86,0,0,0,1,2.21,3.57,3.57,0,0,0,2.45.84,6.74,6.74,0,0,0,1.47-.14,8.24,8.24,0,0,0,1.12-.38,6.73,6.73,0,0,0,1-.53l.88-.59v0l-.09.37h0a.69.69,0,0,0,.62.87h2.21a1.24,1.24,0,0,0,1-.88l1.7-7.34a4.2,4.2,0,0,0,.09-.61c0-.23,0-.42,0-.56A2.48,2.48,0,0,0,237,430.27ZM232.84,439a7.23,7.23,0,0,1-.92.47,3.34,3.34,0,0,1-1.21.26,2.65,2.65,0,0,1-1.33-.26.87.87,0,0,1-.45-.86,1.82,1.82,0,0,1,.33-1.14,2.42,2.42,0,0,1,1-.68,9.52,9.52,0,0,1,1.53-.34c.54-.07,1.59-.19,1.72-.19s.23-.07.17.28c0,.16-.34,1.41-.48,2A1.16,1.16,0,0,1,232.84,439Z"/><path class="cls-4" d="M207.68,429.69a2,2,0,0,0-1.46.89l-3.67,6.3c-.18.31-.36.11-.39,0s-1-6.26-1-6.26a1.29,1.29,0,0,0-1.28-.91h-2.08a.69.69,0,0,0-.7.89s1.59,9,1.9,11.14c.15,1.18,0,1.39,0,1.39l-2.06,3.59c-.3.49-.14.89.36.89h2.42a2,2,0,0,0,1.46-.89l9.28-15.7s.89-1.34.07-1.33h-2.8"/><path class="cls-4" d="M178.37,432.88a4.83,4.83,0,0,1-2.94.78h-.57a.7.7,0,0,1-.71-.9l.7-3a1.17,1.17,0,0,1,1.11-.88h.77a3.62,3.62,0,0,1,2,.46,1.51,1.51,0,0,1,.67,1.38,2.48,2.48,0,0,1-1,2.19m5-4.66a3.58,3.58,0,0,0-1.28-1.37,5.9,5.9,0,0,0-2-.74,16.73,16.73,0,0,0-2.75-.22h-4.86a1.22,1.22,0,0,0-1.12.89L168.09,441a.69.69,0,0,0,.71.89h2.33a1.18,1.18,0,0,0,1.11-.89l.81-3.46a1.19,1.19,0,0,1,1.11-.89h.66a11,11,0,0,0,6.65-1.75,5.45,5.45,0,0,0,2.38-4.62,4.41,4.41,0,0,0-.44-2.1"/><path class="cls-3" d="M220.69,432.94a4.92,4.92,0,0,1-2.94.76h-.58a.69.69,0,0,1-.71-.88l.7-3a1.18,1.18,0,0,1,1.11-.88H219a3.91,3.91,0,0,1,2,.45,1.6,1.6,0,0,1,.68,1.39,2.58,2.58,0,0,1-1.05,2.2m5-4.67a3.53,3.53,0,0,0-1.29-1.37,5.77,5.77,0,0,0-2-.74,15.66,15.66,0,0,0-2.74-.22h-4.88a1.23,1.23,0,0,0-1.11.89L210.4,441.1a.69.69,0,0,0,.7.88h2.34a1.22,1.22,0,0,0,1.12-.88l.79-3.46a1.19,1.19,0,0,1,1.12-.89h.66a11,11,0,0,0,6.66-1.75,5.5,5.5,0,0,0,2.37-4.63,4.56,4.56,0,0,0-.44-2.1"/><path class="cls-4" d="M194.64,430.26a9,9,0,0,0-4.17-.74,18,18,0,0,0-2.82.22c-.69.11-.76.12-1.19.22a1.37,1.37,0,0,0-1,1.08l-.28,1.17c-.16.75.27.71.46.66a11.14,11.14,0,0,1,1.38-.41,10,10,0,0,1,2.19-.3,5.68,5.68,0,0,1,2.11.3,1.09,1.09,0,0,1,.71,1.06.88.88,0,0,1,0,.33c0,.09-.12.18-.34.21-1.33.08-2.28.2-3.44.37a10.72,10.72,0,0,0-3,.81,4.64,4.64,0,0,0-2,1.58,4.34,4.34,0,0,0-.67,2.44,2.86,2.86,0,0,0,.95,2.2,3.56,3.56,0,0,0,2.46.85,6.63,6.63,0,0,0,1.46-.14,7.91,7.91,0,0,0,1.13-.38,6,6,0,0,0,1-.54l.88-.58v0l-.09.37h0a.68.68,0,0,0,.62.87h2.21a1.21,1.21,0,0,0,1-.88l1.71-7.35a4.38,4.38,0,0,0,.08-.6,3.1,3.1,0,0,0,0-.56A2.45,2.45,0,0,0,194.64,430.26ZM190.52,439a6.18,6.18,0,0,1-.92.48,3.35,3.35,0,0,1-1.22.26,2.64,2.64,0,0,1-1.32-.26.9.9,0,0,1-.46-.87,1.75,1.75,0,0,1,.34-1.13,2.45,2.45,0,0,1,1-.68,8.88,8.88,0,0,1,1.54-.34c.53-.07,1.58-.19,1.72-.19s.22-.07.16.28c0,.16-.33,1.41-.47,2A1.07,1.07,0,0,1,190.52,439Z"/><path class="cls-3" d="M245,426.06h-2.09a1.2,1.2,0,0,0-1.09.81l0,.08-.12.52-2.88,13.06c-.07.3-.11.5-.13.55h0a.68.68,0,0,0,.62.86v0h2.16a1.2,1.2,0,0,0,1.09-.82l0-.07,3.12-14.14h0A.69.69,0,0,0,245,426.06Z"/><path class="cls-3" d="M248.16,428.94l-.23,0a1,1,0,0,1-.23,0,.72.72,0,0,1-.53-.18.86.86,0,0,1-.18-.6V427h-.26v-.32H247V426h.38v.65h.79V427h-.79v1c0,.12,0,.22,0,.28a.42.42,0,0,0,.06.19.28.28,0,0,0,.12.12.65.65,0,0,0,.24,0,.63.63,0,0,0,.19,0,.64.64,0,0,0,.15-.05h0Z"/><path class="cls-3" d="M251.93,429h-.38v-1.29a2.71,2.71,0,0,0,0-.29.53.53,0,0,0-.06-.21.24.24,0,0,0-.13-.13.58.58,0,0,0-.25-.05.72.72,0,0,0-.32.08,1.94,1.94,0,0,0-.33.2.37.37,0,0,1,0,.11.49.49,0,0,1,0,.12V429h-.38v-1.29a2.64,2.64,0,0,0,0-.29.81.81,0,0,0,0-.21.32.32,0,0,0-.14-.14.76.76,0,0,0-.25,0,.6.6,0,0,0-.31.08,1.79,1.79,0,0,0-.32.19V429h-.38v-2.27H249v.25a1.45,1.45,0,0,1,.36-.23.81.81,0,0,1,.38-.08.8.8,0,0,1,.39.09.62.62,0,0,1,.24.27,2.34,2.34,0,0,1,.42-.28,1.15,1.15,0,0,1,.41-.08.64.64,0,0,1,.55.22,1,1,0,0,1,.18.63Z"/></g><polygon class="cls-6" points="64.43 178.14 57.59 178.14 61.86 151.88 68.7 151.88 64.43 178.14"/><path class="cls-6" d="M51.83,151.87l-6.52,18.07-.77-3.89h0l-2.3-11.81S42,151.87,39,151.87H28.22l-.13.45a25.43,25.43,0,0,1,7.16,3l5.94,22.82h7.12l10.88-26.27Z"/><path class="cls-6" d="M105.63,178.14h6.28l-5.48-26.27h-5.5a3.14,3.14,0,0,0-3.15,2l-10.2,24.31h7.13l1.42-3.9h8.7Zm-7.53-9.29,3.6-9.83,2,9.83Z"/><path class="cls-6" d="M88.11,158.19l1-5.64a19.8,19.8,0,0,0-6.15-1.14c-3.4,0-11.46,1.48-11.46,8.69,0,6.79,9.46,6.87,9.46,10.44s-8.48,2.92-11.28.67l-1,5.9a19.07,19.07,0,0,0,7.72,1.49c4.67,0,11.71-2.42,11.71-9,0-6.83-9.55-7.46-9.55-10.43S85.19,156.58,88.11,158.19Z"/><path class="cls-7" d="M44.54,166.05l-2.3-11.81S42,151.87,39,151.87H28.22l-.13.45a26.42,26.42,0,0,1,10.15,5.1A20.36,20.36,0,0,1,44.54,166.05Z"/><g class="cls-5"><rect class="cls-2" y="210" width="140" height="90"/><g class="cls-8"><polygon class="cls-6" points="64.43 268.14 57.59 268.14 61.86 241.88 68.7 241.88 64.43 268.14"/><path class="cls-6" d="M51.83,241.87l-6.52,18.07-.77-3.89h0l-2.3-11.81S42,241.87,39,241.87H28.22l-.13.45a25.43,25.43,0,0,1,7.16,3l5.94,22.82h7.12l10.88-26.27Z"/><path class="cls-6" d="M105.63,268.14h6.28l-5.48-26.27h-5.5a3.14,3.14,0,0,0-3.15,2l-10.2,24.31h7.13l1.42-3.9h8.7Zm-7.53-9.29,3.6-9.83,2,9.83Z"/><path class="cls-6" d="M88.11,248.19l1-5.64a19.8,19.8,0,0,0-6.15-1.14c-3.4,0-11.46,1.48-11.46,8.69,0,6.79,9.46,6.87,9.46,10.44s-8.48,2.92-11.28.67l-1,5.9a19.07,19.07,0,0,0,7.72,1.49c4.67,0,11.71-2.42,11.71-9,0-6.83-9.55-7.46-9.55-10.43S85.19,246.58,88.11,248.19Z"/><path class="cls-7" d="M44.54,256.05l-2.3-11.81S42,241.87,39,241.87H28.22l-.13.45a26.42,26.42,0,0,1,10.15,5.1A20.36,20.36,0,0,1,44.54,256.05Z"/></g></g><rect class="cls-9" y="480" width="140" height="90"/><polygon class="cls-10" points="0 499.9 140 499.9 140 550.1 0 550.1 0 499.9 0 499.9"/><path class="cls-11" d="M20.8,509.74h3.26c2.85,0,5.4.83,5.4,3.91s-2.19,4.09-5,4.09H23.35v4.92H20.8V509.74Zm2.55,6h.95c1.31,0,2.43-.41,2.43-1.89s-1.12-2-2.43-2h-.95v3.91Z"/><path class="cls-11" d="M35,512.94a4.79,4.79,0,0,1,5,5,4.73,4.73,0,0,1-5,4.92A4.72,4.72,0,0,1,30,518a4.78,4.78,0,0,1,5-5ZM35,521c2,0,2.43-1.72,2.43-3.32s-.77-2.84-2.43-2.84-2.37,1.42-2.37,2.84S33.13,521,35,521Z"/><path class="cls-11" d="M47.6,515.13a6.56,6.56,0,0,0-2.2-.41c-.71,0-1.48.23-1.48,1.06,0,1.54,4.33.54,4.33,4,0,2.2-2,3.09-4,3.09a10.82,10.82,0,0,1-2.79-.42l.12-2a6,6,0,0,0,2.49.59c.59,0,1.6-.24,1.6-1.13,0-1.89-4.33-.59-4.33-4,0-2.07,1.84-3,3.74-3a11.26,11.26,0,0,1,2.72.35l-.17,1.84Z"/><path class="cls-11" d="M50.68,515H48.84v-1.83h1.84v-1.9l2.49-.77v2.67h2.19V515H53.17v4.45c0,.83.23,1.6,1.18,1.6a2.1,2.1,0,0,0,1.13-.3l.06,2a5.29,5.29,0,0,1-1.84.24,2.82,2.82,0,0,1-3-3.09V515Z"/><polygon class="cls-11" points="57.02 509.74 64.25 509.74 64.25 511.81 59.63 511.81 59.63 514.95 64.01 514.95 64.01 517.03 59.63 517.03 59.63 522.66 57.02 522.66 57.02 509.74 57.02 509.74"/><path class="cls-11" d="M65.85,509h2.49v2.37H65.85V509Zm0,4.09h2.49v9.54H65.85v-9.54Z"/><path class="cls-11" d="M71,513.12h2.37v1.3a3.59,3.59,0,0,1,3.14-1.48c2.25,0,3.26,1.54,3.26,3.73v6H77.23v-5.1c0-1.12,0-2.72-1.6-2.72-1.84,0-2.19,1.95-2.19,3.2v4.62H71v-9.54Z"/><path class="cls-11" d="M82.51,513.65a7.83,7.83,0,0,1,3.32-.71c2.9,0,4.09,1.18,4.09,4v1.24c0,1,0,1.66,0,2.38s.06,1.42.12,2.13H87.9a6.44,6.44,0,0,1-.12-1.42h-.06a3.3,3.3,0,0,1-2.9,1.66c-1.72,0-3.38-1-3.38-2.85a2.85,2.85,0,0,1,1.66-2.73,7.5,7.5,0,0,1,3.2-.53h1.36c0-1.54-.65-2.07-2.13-2.07a4.89,4.89,0,0,0-3,1.06l-.06-2.13Zm2.9,7.41a2,2,0,0,0,1.72-.83,3.2,3.2,0,0,0,.53-2H86.6c-1.13,0-2.79.18-2.79,1.66,0,.77.71,1.13,1.6,1.13Z"/><path class="cls-11" d="M92.4,513.12h2.32v1.3h.06a3.58,3.58,0,0,1,3.14-1.48c2.25,0,3.2,1.54,3.2,3.73v6H98.63v-5.1c0-1.12,0-2.72-1.6-2.72-1.78,0-2.19,1.95-2.19,3.2v4.62H92.4v-9.54Z"/><path class="cls-11" d="M109.89,515.19a4.34,4.34,0,0,0-1.72-.35c-1.54,0-2.49,1.24-2.49,3s.83,3.14,2.55,3.14a6.2,6.2,0,0,0,2-.47l.06,2.07a9.31,9.31,0,0,1-2.43.3c-3.15,0-4.75-2.14-4.75-5s1.66-4.92,4.63-4.92a7.6,7.6,0,0,1,2.43.29l-.24,2Z"/><path class="cls-11" d="M119.37,522.13a6.2,6.2,0,0,1-3.26.77c-3.14,0-5-1.84-5-4.92,0-2.79,1.43-5,4.39-5,3.56,0,4.56,2.43,4.56,5.75h-6.57a2.46,2.46,0,0,0,2.72,2.37,6.14,6.14,0,0,0,3.14-.95v2ZM117.71,517c-.06-1.19-.65-2.25-2-2.25a2.16,2.16,0,0,0-2.19,2.25Z"/><polygon class="cls-12" points="124.17 527.16 130.52 527.16 129.51 531.85 134.19 531.85 132.95 537.71 128.26 537.71 127.38 542.1 122.22 542.1 122.52 540.56 126.13 540.56 127.02 536.23 131.7 536.23 132.29 533.33 127.61 533.33 128.56 528.71 125.42 528.71 124.47 533.33 122.87 533.33 124.17 527.16 124.17 527.16"/><polygon class="cls-13" points="120.32 542.1 121.15 538.25 76.99 538.25 76.16 542.1 120.32 542.1 120.32 542.1"/><path class="cls-11" d="M98.75,532H97.44v.06l-1.6,7.41v.06H97.5v-.06s.48-2.25.54-2.43h.77a3.41,3.41,0,0,0,2.48-.89,2.56,2.56,0,0,0,.78-1.89,1.92,1.92,0,0,0-.54-1.43,4,4,0,0,0-2.78-.83Zm.06,1.31h.41a1.09,1.09,0,0,1,.83.35.85.85,0,0,1,.3.77,1.47,1.47,0,0,1-1.6,1.31h-.42l.48-2.43Z"/><path class="cls-11" d="M108.76,532.74a3.2,3.2,0,0,0-2.31-.83,3.76,3.76,0,0,0-3.14,1.42,5.22,5.22,0,0,0-1.18,3.26,3.27,3.27,0,0,0,.88,2.31,2.94,2.94,0,0,0,2.14.83,4.48,4.48,0,0,0,3.2-1.25,5.36,5.36,0,0,0,1.24-3.37,3.35,3.35,0,0,0-.83-2.37Zm-3.43,5.69a1.42,1.42,0,0,1-1-.42,1.88,1.88,0,0,1-.48-1.36,4.18,4.18,0,0,1,1.07-2.79,2,2,0,0,1,1.48-.65,1.46,1.46,0,0,1,1,.41,1.89,1.89,0,0,1,.47,1.37c0,1.36-.88,3.44-2.54,3.44Z"/><path class="cls-11" d="M81.38,532h-2v.06l-1.54,7.41v.06h2.55a4,4,0,0,0,3.38-1.36,4.92,4.92,0,0,0,1-2.73c.12-2.13-1-3.26-3.38-3.44Zm-.59,1.31h.12a2.4,2.4,0,0,1,1.77.53,1.32,1.32,0,0,1,.36,1.19c-.06,2.19-1,3.2-3,3.2h-.3l1-4.92Z"/><path class="cls-11" d="M115.23,532.26a5.21,5.21,0,0,0-2-.35c-1.31,0-2.85.59-2.85,2.31a2.12,2.12,0,0,0,1.49,1.95c.53.3,1,.6,1,1.13a1.17,1.17,0,0,1-1.3,1.13,4.41,4.41,0,0,1-1.78-.54h-.06l-.06.06-.35,1.25v0h0l.06.06a6.71,6.71,0,0,0,2.13.42,3.35,3.35,0,0,0,2.43-.83,2.4,2.4,0,0,0,.65-1.72,2.43,2.43,0,0,0-1.54-2.13c-.53-.3-1-.6-1-1.07a.54.54,0,0,1,.18-.42,1.61,1.61,0,0,1,1-.35,3.61,3.61,0,0,1,1.54.41h.06v-.06l.36-1.24,0-.06Z"/><polygon class="cls-11" points="94 532.02 89.68 532.02 89.62 532.02 89.62 532.08 88.02 539.49 88.02 539.55 88.14 539.55 92.52 539.55 92.58 539.55 92.58 539.49 92.82 538.37 92.88 538.25 92.82 538.25 92.76 538.25 89.92 538.25 90.33 536.35 92.88 536.35 92.94 536.35 92.94 536.29 93.17 535.11 93.17 535.05 93.17 534.99 93.12 534.99 90.63 534.99 90.98 533.33 93.83 533.33 93.89 533.33 93.89 533.27 94.12 532.08 94.12 532.02 94.06 532.02 94 532.02 94 532.02"/><polygon class="cls-11" points="88.25 532.02 88.2 532.02 88.14 532.02 86.6 532.02 86.54 532.02 86.54 532.08 85 539.49 84.94 539.55 85 539.55 85.06 539.55 86.6 539.55 86.66 539.55 86.66 539.49 88.2 532.08 88.25 532.02 88.25 532.02"/><path class="cls-11" d="M121.57,532H115.7v.06l-.24,1.19-.06.06h2.08l-1.31,6.16v.06h1.66l.06-.06,1.31-6.16h2.07l.06-.06.24-1.19V532Z"/><g class="cls-5"><rect class="cls-9" x="140" y="480" width="140" height="90"/><polygon class="cls-10" points="140 499.9 280 499.9 280 550.1 140 550.1 140 499.9 140 499.9"/><path class="cls-11" d="M160.8,509.74h3.26c2.85,0,5.4.83,5.4,3.91s-2.19,4.09-5,4.09h-1.13v4.92H160.8V509.74Zm2.55,6h1c1.31,0,2.43-.41,2.43-1.89s-1.12-2-2.43-2h-1v3.91Z"/><path class="cls-11" d="M175,512.94a4.79,4.79,0,0,1,5,5,5,5,0,1,1-5-5Zm0,8.06c2,0,2.43-1.72,2.43-3.32s-.77-2.84-2.43-2.84-2.37,1.42-2.37,2.84S173.13,521,175,521Z"/><path class="cls-11" d="M187.6,515.13a6.56,6.56,0,0,0-2.2-.41c-.71,0-1.48.23-1.48,1.06,0,1.54,4.33.54,4.33,4,0,2.2-2,3.09-4,3.09a10.82,10.82,0,0,1-2.79-.42l.12-2a6,6,0,0,0,2.49.59c.59,0,1.6-.24,1.6-1.13,0-1.89-4.33-.59-4.33-4,0-2.07,1.84-3,3.74-3a11.26,11.26,0,0,1,2.72.35l-.17,1.84Z"/><path class="cls-11" d="M190.68,515h-1.84v-1.83h1.84v-1.9l2.49-.77v2.67h2.19V515h-2.19v4.45c0,.83.23,1.6,1.18,1.6a2.1,2.1,0,0,0,1.13-.3l.06,2a5.29,5.29,0,0,1-1.84.24,2.82,2.82,0,0,1-3-3.09V515Z"/><polygon class="cls-11" points="197.02 509.74 204.25 509.74 204.25 511.81 199.63 511.81 199.63 514.95 204.01 514.95 204.01 517.03 199.63 517.03 199.63 522.66 197.02 522.66 197.02 509.74 197.02 509.74"/><path class="cls-11" d="M205.85,509h2.49v2.37h-2.49V509Zm0,4.09h2.49v9.54h-2.49v-9.54Z"/><path class="cls-11" d="M211,513.12h2.37v1.3a3.59,3.59,0,0,1,3.14-1.48c2.25,0,3.26,1.54,3.26,3.73v6h-2.49v-5.1c0-1.12,0-2.72-1.6-2.72-1.84,0-2.19,1.95-2.19,3.2v4.62H211v-9.54Z"/><path class="cls-11" d="M222.51,513.65a7.83,7.83,0,0,1,3.32-.71c2.9,0,4.09,1.18,4.09,4v1.24c0,1,.05,1.66.05,2.38s.06,1.42.12,2.13H227.9a6.44,6.44,0,0,1-.12-1.42h-.06a3.3,3.3,0,0,1-2.9,1.66c-1.72,0-3.38-1-3.38-2.85a2.85,2.85,0,0,1,1.66-2.73,7.5,7.5,0,0,1,3.2-.53h1.36c0-1.54-.65-2.07-2.13-2.07a4.89,4.89,0,0,0-3,1.06l-.06-2.13Zm2.9,7.41a2,2,0,0,0,1.72-.83,3.2,3.2,0,0,0,.53-2H226.6c-1.13,0-2.79.18-2.79,1.66,0,.77.71,1.13,1.6,1.13Z"/><path class="cls-11" d="M232.4,513.12h2.32v1.3h.06a3.58,3.58,0,0,1,3.14-1.48c2.25,0,3.2,1.54,3.2,3.73v6h-2.49v-5.1c0-1.12,0-2.72-1.6-2.72-1.78,0-2.19,1.95-2.19,3.2v4.62H232.4v-9.54Z"/><path class="cls-11" d="M249.89,515.19a4.34,4.34,0,0,0-1.72-.35c-1.54,0-2.49,1.24-2.49,3s.83,3.14,2.55,3.14a6.2,6.2,0,0,0,2-.47l.06,2.07a9.31,9.31,0,0,1-2.43.3c-3.15,0-4.75-2.14-4.75-5s1.66-4.92,4.63-4.92a7.6,7.6,0,0,1,2.43.29l-.24,2Z"/><path class="cls-11" d="M259.37,522.13a6.2,6.2,0,0,1-3.26.77c-3.14,0-5-1.84-5-4.92,0-2.79,1.43-5,4.39-5,3.56,0,4.56,2.43,4.56,5.75h-6.57a2.46,2.46,0,0,0,2.72,2.37,6.14,6.14,0,0,0,3.14-.95v2ZM257.71,517c-.06-1.19-.65-2.25-2-2.25a2.16,2.16,0,0,0-2.19,2.25Z"/><polygon class="cls-12" points="264.18 527.16 270.52 527.16 269.51 531.85 274.19 531.85 272.95 537.71 268.26 537.71 267.38 542.1 262.22 542.1 262.51 540.56 266.13 540.56 267.02 536.23 271.7 536.23 272.3 533.33 267.61 533.33 268.56 528.71 265.42 528.71 264.47 533.33 262.87 533.33 264.18 527.16 264.18 527.16"/><polygon class="cls-13" points="260.32 542.1 261.15 538.25 216.99 538.25 216.16 542.1 260.32 542.1 260.32 542.1"/><path class="cls-11" d="M238.75,532h-1.31v.06l-1.6,7.41v.06h1.66v-.06s.48-2.25.54-2.43h.77a3.41,3.41,0,0,0,2.48-.89,2.56,2.56,0,0,0,.78-1.89,1.92,1.92,0,0,0-.54-1.43,4,4,0,0,0-2.78-.83Zm.06,1.31h.41a1.09,1.09,0,0,1,.83.35.85.85,0,0,1,.3.77,1.47,1.47,0,0,1-1.6,1.31h-.42l.48-2.43Z"/><path class="cls-11" d="M248.76,532.74a3.2,3.2,0,0,0-2.31-.83,3.76,3.76,0,0,0-3.14,1.42,5.22,5.22,0,0,0-1.18,3.26,3.27,3.27,0,0,0,.88,2.31,2.94,2.94,0,0,0,2.14.83,4.48,4.48,0,0,0,3.2-1.25,5.36,5.36,0,0,0,1.24-3.37,3.35,3.35,0,0,0-.83-2.37Zm-3.43,5.69a1.42,1.42,0,0,1-1-.42,1.88,1.88,0,0,1-.48-1.36,4.18,4.18,0,0,1,1.07-2.79,2,2,0,0,1,1.48-.65,1.46,1.46,0,0,1,1,.41,1.89,1.89,0,0,1,.47,1.37c0,1.36-.88,3.44-2.54,3.44Z"/><path class="cls-11" d="M221.38,532h-2v.06l-1.54,7.41v.06h2.55a4,4,0,0,0,3.38-1.36,4.92,4.92,0,0,0,.95-2.73c.12-2.13-1-3.26-3.38-3.44Zm-.59,1.31h.12a2.4,2.4,0,0,1,1.77.53,1.32,1.32,0,0,1,.36,1.19c-.06,2.19-1,3.2-3,3.2h-.3l1-4.92Z"/><path class="cls-11" d="M255.23,532.26a5.21,5.21,0,0,0-2-.35c-1.31,0-2.85.59-2.85,2.31a2.12,2.12,0,0,0,1.49,1.95c.53.3,1,.6,1,1.13a1.17,1.17,0,0,1-1.3,1.13,4.41,4.41,0,0,1-1.78-.54h-.06l-.06.06-.35,1.25v0h0l.06.06a6.71,6.71,0,0,0,2.13.42,3.35,3.35,0,0,0,2.43-.83,2.4,2.4,0,0,0,.65-1.72,2.43,2.43,0,0,0-1.54-2.13c-.53-.3-1-.6-1-1.07a.54.54,0,0,1,.18-.42,1.61,1.61,0,0,1,1-.35,3.61,3.61,0,0,1,1.54.41h.06v-.06l.36-1.24.05-.06Z"/><polygon class="cls-11" points="234 532.02 229.68 532.02 229.62 532.02 229.62 532.08 228.02 539.49 228.02 539.55 228.14 539.55 232.52 539.55 232.58 539.55 232.58 539.49 232.82 538.37 232.88 538.25 232.82 538.25 232.76 538.25 229.91 538.25 230.33 536.35 232.88 536.35 232.94 536.35 232.94 536.29 233.18 535.11 233.18 535.05 233.18 534.99 233.12 534.99 230.63 534.99 230.98 533.33 233.83 533.33 233.89 533.33 233.89 533.27 234.12 532.08 234.12 532.02 234.06 532.02 234 532.02 234 532.02"/><polygon class="cls-11" points="228.25 532.02 228.2 532.02 228.14 532.02 226.6 532.02 226.54 532.02 226.54 532.08 225 539.49 224.94 539.55 225 539.55 225.06 539.55 226.6 539.55 226.66 539.55 226.66 539.49 228.2 532.08 228.25 532.02 228.25 532.02"/><path class="cls-11" d="M261.57,532H255.7v.06l-.24,1.19-.06.06h2.08l-1.31,6.16v.06h1.66l.06-.06,1.31-6.16h2.07l.06-.06.24-1.19V532Z"/></g><rect class="cls-2" y="300" width="140" height="90"/><g id="Layer_2" data-name="Layer 2"><g id="Layer_1-2" data-name="Layer 1-2"><path class="cls-14" d="M44.77,375.69V371.6A2.44,2.44,0,0,0,42.51,369H42.2a2.52,2.52,0,0,0-2.28,1.16A2.41,2.41,0,0,0,37.76,369a2.14,2.14,0,0,0-1.9,1v-.8H34.44v6.51h1.43V372.1a1.52,1.52,0,0,1,1.31-1.71,1.32,1.32,0,0,1,.28,0c.94,0,1.42.62,1.42,1.72v3.62h1.43V372.1a1.53,1.53,0,0,1,1.32-1.71,1.23,1.23,0,0,1,.27,0c1,0,1.44.62,1.44,1.72v3.62Zm21.16-6.51H63.6v-2H62.17v2h-1.3v1.29h1.32v3c0,1.51.59,2.41,2.27,2.41a3.37,3.37,0,0,0,1.77-.51l-.41-1.21a2.64,2.64,0,0,1-1.26.37c-.68,0-.94-.44-.94-1.09v-3h2.32ZM78,369a1.94,1.94,0,0,0-1.72,1v-.79h-1.4v6.51h1.42V372c0-1.08.46-1.68,1.36-1.68a2.41,2.41,0,0,1,.88.16l.44-1.36a3.4,3.4,0,0,0-1-.18Zm-18.27.68a4.93,4.93,0,0,0-2.65-.68c-1.65,0-2.73.79-2.73,2.09,0,1.06.79,1.71,2.25,1.92l.68.09c.78.11,1.14.32,1.14.68s-.51.79-1.48.79a3.4,3.4,0,0,1-2.17-.68L54.1,375a4.75,4.75,0,0,0,2.82.84c1.88,0,3-.89,3-2.12s-.86-1.75-2.27-2l-.68-.1c-.62-.08-1.11-.2-1.11-.64s.47-.76,1.24-.76a4.23,4.23,0,0,1,2,.56ZM97.69,369A1.92,1.92,0,0,0,96,370v-.79h-1.4v6.51H96V372c0-1.08.47-1.68,1.37-1.68a2.41,2.41,0,0,1,.88.16l.44-1.36a3.52,3.52,0,0,0-1-.18Zm-18.26,3.41a3.3,3.3,0,0,0,3.17,3.41h.31a3.38,3.38,0,0,0,2.34-.77l-.68-1.15a2.85,2.85,0,0,1-1.7.59,2.09,2.09,0,0,1,0-4.17,2.85,2.85,0,0,1,1.7.59l.68-1.15a3.44,3.44,0,0,0-2.34-.78,3.29,3.29,0,0,0-3.47,3.1c0,.11,0,.21,0,.31Zm13.27,0v-3.24H91.28V370a2.45,2.45,0,0,0-2-1,3.41,3.41,0,0,0,0,6.81,2.44,2.44,0,0,0,2-.95v.79H92.7Zm-5.27,0a2,2,0,1,1,0,.15A.75.75,0,0,1,87.43,372.42ZM70.33,369a3.41,3.41,0,0,0,.1,6.81h0a3.94,3.94,0,0,0,2.7-.88l-.68-1.05a3.1,3.1,0,0,1-1.89.68,1.8,1.8,0,0,1-2-1.59h4.84v-.55a3.1,3.1,0,0,0-3.1-3.4Zm0,1.27A1.61,1.61,0,0,1,72,371.86h-3.4a1.68,1.68,0,0,1,1.73-1.58Zm35.5,2.15v-5.87h-1.37V370a2.45,2.45,0,0,0-2-1,3.41,3.41,0,1,0,0,6.81,2.44,2.44,0,0,0,2-.95v.79h1.37Zm2.36,2.31a.75.75,0,0,1,.26.05.74.74,0,0,1,.21.13.6.6,0,0,1,.14.21.62.62,0,0,1,0,.5.6.6,0,0,1-.14.21.74.74,0,0,1-.21.13.58.58,0,0,1-.26.06.68.68,0,0,1-.61-.4.62.62,0,0,1,0-.5.6.6,0,0,1,.14-.21.74.74,0,0,1,.21-.13.66.66,0,0,1,.28-.05Zm0,1.15a.48.48,0,0,0,.2,0,.42.42,0,0,0,.15-.11.5.5,0,0,0,0-.68.42.42,0,0,0-.15-.11.48.48,0,0,0-.2,0,.45.45,0,0,0-.2,0,.46.46,0,0,0-.16.11.5.5,0,0,0,0,.68.36.36,0,0,0,.16.11.54.54,0,0,0,.22,0Zm0-.81a.3.3,0,0,1,.18.06.17.17,0,0,1,.06.14.18.18,0,0,1,0,.12.2.2,0,0,1-.14.06l.2.23h-.16l-.19-.23h-.06v.23h-.13v-.6Zm-.15.12v.16h.23a.06.06,0,0,0,0-.06.06.06,0,0,0,0-.06h-.08Zm-7.49-2.77a1.89,1.89,0,1,1,0,.16A.81.81,0,0,1,100.59,372.43Zm-47.84,0v-3.25H51.34V370a2.48,2.48,0,0,0-2.05-1,3.41,3.41,0,0,0,0,6.81,2.47,2.47,0,0,0,2.05-.95v.79h1.41Zm-5.27,0a2,2,0,1,1,2,2.09,2,2,0,0,1-2-1.92,1,1,0,0,1,0-.17Z"/><g id="_Group_" data-name=" Group "><rect class="cls-15" x="59.27" y="319.56" width="21.45" height="38.56"/><path id="_Path_" data-name=" Path " class="cls-16" d="M60.63,338.84A24.49,24.49,0,0,1,70,319.56a24.52,24.52,0,1,0,0,38.55A24.48,24.48,0,0,1,60.63,338.84Z"/><path class="cls-17" d="M109.67,338.84A24.51,24.51,0,0,1,70,358.11a24.5,24.5,0,0,0,4.13-34.42A24.09,24.09,0,0,0,70,319.56a24.51,24.51,0,0,1,39.67,19.27Z"/><path class="cls-17" d="M107.33,354v-.79h.32v-.17h-.81v.17h.35V354Zm1.57,0v-1h-.24l-.29.69-.28-.69h-.22v1h.18v-.72l.26.62h.19l.26-.62V354Z"/></g></g></g><g class="cls-5"><rect class="cls-2" y="390" width="140" height="90"/><g id="Layer_2-2" data-name="Layer 2"><g id="Layer_1-2-2" data-name="Layer 1-2"><path class="cls-14" d="M44.77,465.69V461.6A2.44,2.44,0,0,0,42.51,459H42.2a2.52,2.52,0,0,0-2.28,1.16A2.41,2.41,0,0,0,37.76,459a2.14,2.14,0,0,0-1.9,1v-.8H34.44v6.51h1.43V462.1a1.52,1.52,0,0,1,1.31-1.71,1.32,1.32,0,0,1,.28,0c.94,0,1.42.62,1.42,1.72v3.62h1.43V462.1a1.53,1.53,0,0,1,1.32-1.71,1.23,1.23,0,0,1,.27,0c1,0,1.44.62,1.44,1.72v3.62Zm21.16-6.51H63.6v-2H62.17v2h-1.3v1.29h1.32v3c0,1.51.59,2.41,2.27,2.41a3.37,3.37,0,0,0,1.77-.51l-.41-1.21a2.64,2.64,0,0,1-1.26.37c-.68,0-.94-.44-.94-1.09v-3h2.32ZM78,459a1.94,1.94,0,0,0-1.72,1v-.79h-1.4v6.51h1.42V462c0-1.08.46-1.68,1.36-1.68a2.41,2.41,0,0,1,.88.16l.44-1.36a3.4,3.4,0,0,0-1-.18Zm-18.27.68a4.93,4.93,0,0,0-2.65-.68c-1.65,0-2.73.79-2.73,2.09,0,1.06.79,1.71,2.25,1.92l.68.09c.78.11,1.14.32,1.14.68s-.51.79-1.48.79a3.4,3.4,0,0,1-2.17-.68L54.1,465a4.75,4.75,0,0,0,2.82.84c1.88,0,3-.89,3-2.12s-.86-1.75-2.27-2l-.68-.1c-.62-.08-1.11-.2-1.11-.64s.47-.76,1.24-.76a4.23,4.23,0,0,1,2,.56ZM97.69,459A1.92,1.92,0,0,0,96,460v-.79h-1.4v6.51H96V462c0-1.08.47-1.68,1.37-1.68a2.41,2.41,0,0,1,.88.16l.44-1.36a3.52,3.52,0,0,0-1-.18Zm-18.26,3.41a3.3,3.3,0,0,0,3.17,3.41h.31a3.38,3.38,0,0,0,2.34-.77l-.68-1.15a2.85,2.85,0,0,1-1.7.59,2.09,2.09,0,0,1,0-4.17,2.85,2.85,0,0,1,1.7.59l.68-1.15a3.44,3.44,0,0,0-2.34-.78,3.29,3.29,0,0,0-3.47,3.1c0,.11,0,.21,0,.31Zm13.27,0v-3.24H91.28V460a2.45,2.45,0,0,0-2-1,3.41,3.41,0,0,0,0,6.81,2.44,2.44,0,0,0,2-.95v.79H92.7Zm-5.27,0a2,2,0,1,1,0,.15A.75.75,0,0,1,87.43,462.42ZM70.33,459a3.41,3.41,0,0,0,.1,6.81h0a3.94,3.94,0,0,0,2.7-.88l-.68-1.05a3.1,3.1,0,0,1-1.89.68,1.8,1.8,0,0,1-2-1.59h4.84v-.55a3.1,3.1,0,0,0-3.1-3.4Zm0,1.27A1.61,1.61,0,0,1,72,461.86h-3.4a1.68,1.68,0,0,1,1.73-1.58Zm35.5,2.15v-5.87h-1.37V460a2.45,2.45,0,0,0-2-1,3.41,3.41,0,1,0,0,6.81,2.44,2.44,0,0,0,2-.95v.79h1.37Zm2.36,2.31a.75.75,0,0,1,.26.05.74.74,0,0,1,.21.13.6.6,0,0,1,.14.21.62.62,0,0,1,0,.5.6.6,0,0,1-.14.21.74.74,0,0,1-.21.13.58.58,0,0,1-.26.06.68.68,0,0,1-.61-.4.62.62,0,0,1,0-.5.6.6,0,0,1,.14-.21.74.74,0,0,1,.21-.13.66.66,0,0,1,.28-.05Zm0,1.15a.48.48,0,0,0,.2,0,.42.42,0,0,0,.15-.11.5.5,0,0,0,0-.68.42.42,0,0,0-.15-.11.48.48,0,0,0-.2,0,.45.45,0,0,0-.2,0,.46.46,0,0,0-.16.11.5.5,0,0,0,0,.68.36.36,0,0,0,.16.11.54.54,0,0,0,.22,0Zm0-.81a.3.3,0,0,1,.18.06.17.17,0,0,1,.06.14.18.18,0,0,1,0,.12.2.2,0,0,1-.14.06l.2.23h-.16l-.19-.23h-.06v.23h-.13v-.6Zm-.15.12v.16h.23a.06.06,0,0,0,0-.06.06.06,0,0,0,0-.06h-.08Zm-7.49-2.77a1.89,1.89,0,1,1,0,.16A.81.81,0,0,1,100.59,462.43Zm-47.84,0v-3.25H51.34V460a2.48,2.48,0,0,0-2.05-1,3.41,3.41,0,0,0,0,6.81,2.47,2.47,0,0,0,2.05-.95v.79h1.41Zm-5.27,0a2,2,0,1,1,2,2.09,2,2,0,0,1-2-1.92,1,1,0,0,1,0-.17Z"/><g id="_Group_2" data-name=" Group "><rect class="cls-15" x="59.27" y="409.56" width="21.45" height="38.56"/><path id="_Path_2" data-name=" Path " class="cls-16" d="M60.63,428.84A24.49,24.49,0,0,1,70,409.56a24.52,24.52,0,1,0,0,38.55A24.48,24.48,0,0,1,60.63,428.84Z"/><path class="cls-17" d="M109.67,428.84A24.51,24.51,0,0,1,70,448.11a24.5,24.5,0,0,0,4.13-34.42A24.09,24.09,0,0,0,70,409.56a24.51,24.51,0,0,1,39.67,19.27Z"/><path class="cls-17" d="M107.33,444v-.79h.32v-.17h-.81v.17h.35V444Zm1.57,0v-1h-.24l-.29.69-.28-.69h-.22v1h.18v-.72l.26.62h.19l.26-.62V444Z"/></g></g></g></g><rect class="cls-2" x="140" y="120" width="140" height="90"/><polygon class="cls-18" points="220.75 178.04 199.25 178.04 199.25 139.4 220.75 139.4 220.75 178.04"/><path class="cls-19" d="M200.61,158.72A24.52,24.52,0,0,1,210,139.4,24.58,24.58,0,1,0,210,178a24.52,24.52,0,0,1-9.39-19.32"/><path class="cls-20" d="M249.76,158.72A24.57,24.57,0,0,1,210,178a24.57,24.57,0,0,0,0-38.64,24.57,24.57,0,0,1,39.76,19.32"/><path class="cls-21" d="M228,189a2.92,2.92,0,0,1,1,.18l-.44,1.34a2.2,2.2,0,0,0-.89-.17c-.93,0-1.39.6-1.39,1.68v3.66H224.9v-6.53h1.41v.8a1.92,1.92,0,0,1,1.72-1Zm-5.25,1.46h-2.32v3c0,.65.23,1.09.94,1.09a2.61,2.61,0,0,0,1.26-.37l.41,1.22a3.37,3.37,0,0,1-1.78.5c-1.68,0-2.26-.9-2.26-2.41v-3H217.7v-1.3H219v-2h1.43v2h2.32v1.3Zm-18.17,1.39a1.68,1.68,0,0,1,1.73-1.58,1.62,1.62,0,0,1,1.66,1.58Zm4.86.58a3.13,3.13,0,0,0-3.1-3.43,3.43,3.43,0,0,0,.1,6.85,3.94,3.94,0,0,0,2.67-.91l-.69-1.05a3.18,3.18,0,0,1-1.9.68,1.8,1.8,0,0,1-2-1.6h4.84a4.75,4.75,0,0,0,0-.54Zm6.24-1.6a4.16,4.16,0,0,0-2-.56c-.78,0-1.25.29-1.25.76s.49.56,1.11.65l.67.09c1.42.21,2.28.81,2.28,2s-1.1,2.13-3,2.13a4.75,4.75,0,0,1-2.83-.84l.67-1.11a3.49,3.49,0,0,0,2.18.68c1,0,1.48-.28,1.48-.79s-.37-.57-1.14-.68l-.67-.1c-1.46-.2-2.26-.86-2.26-1.92,0-1.3,1.07-2.09,2.72-2.09a4.86,4.86,0,0,1,2.66.68l-.61,1.15Zm17.51-.48a2.18,2.18,0,0,0-.82.15,1.94,1.94,0,0,0-.65.43,2.2,2.2,0,0,0-.43.67,2.3,2.3,0,0,0-.16.85,2.34,2.34,0,0,0,.16.85,2,2,0,0,0,.43.66,2,2,0,0,0,.65.44,2.29,2.29,0,0,0,1.63,0,2,2,0,0,0,.65-.44,1.91,1.91,0,0,0,.44-.66,2.34,2.34,0,0,0,.16-.85,2.3,2.3,0,0,0-.16-.85,2.05,2.05,0,0,0-.44-.67,1.94,1.94,0,0,0-.65-.43,2.16,2.16,0,0,0-.81-.15Zm0-1.35a3.79,3.79,0,0,1,1.4.26,3.45,3.45,0,0,1,1.12.73,3.29,3.29,0,0,1,.74,1.09,3.61,3.61,0,0,1,0,2.74,3.31,3.31,0,0,1-1.86,1.81,3.79,3.79,0,0,1-2.81,0,3.23,3.23,0,0,1-1.11-.72,3.29,3.29,0,0,1-.74-1.09,3.61,3.61,0,0,1,0-2.74,3.29,3.29,0,0,1,.74-1.09,3.4,3.4,0,0,1,1.11-.73,3.8,3.8,0,0,1,1.41-.26Zm-36.9,3.43a2,2,0,1,1,2,2.08,2,2,0,0,1-2-2.08Zm5.28,0v-3.27h-1.42v.8a2.46,2.46,0,0,0-2.06-1,3.43,3.43,0,0,0,0,6.85,2.49,2.49,0,0,0,2.06-.95v.79h1.42Zm-8,3.26v-4.1A2.42,2.42,0,0,0,191,189a2.54,2.54,0,0,0-2.29,1.16,2.4,2.4,0,0,0-2.16-1.16,2.16,2.16,0,0,0-1.91,1v-.81h-1.42v6.53h1.44V192a1.52,1.52,0,0,1,1.59-1.73c.95,0,1.42.61,1.42,1.72v3.63h1.44V192a1.53,1.53,0,0,1,1.59-1.73c1,0,1.44.61,1.44,1.72v3.63Z"/><g class="cls-5"><rect class="cls-2" x="140" y="210" width="140" height="90"/><polygon class="cls-18" points="220.75 268.04 199.25 268.04 199.25 229.4 220.75 229.4 220.75 268.04"/><path class="cls-19" d="M200.61,248.72A24.52,24.52,0,0,1,210,229.4,24.58,24.58,0,1,0,210,268a24.52,24.52,0,0,1-9.39-19.32"/><path class="cls-20" d="M249.76,248.72A24.57,24.57,0,0,1,210,268a24.57,24.57,0,0,0,0-38.64,24.57,24.57,0,0,1,39.76,19.32"/><path class="cls-21" d="M228,279a2.92,2.92,0,0,1,1,.18l-.44,1.34a2.2,2.2,0,0,0-.89-.17c-.93,0-1.39.6-1.39,1.68v3.66H224.9v-6.53h1.41v.8a1.92,1.92,0,0,1,1.72-1Zm-5.25,1.46h-2.32v2.95c0,.65.23,1.09.94,1.09a2.61,2.61,0,0,0,1.26-.37l.41,1.22a3.37,3.37,0,0,1-1.78.5c-1.68,0-2.26-.9-2.26-2.41v-3H217.7v-1.3H219v-2h1.43v2h2.32v1.3Zm-18.17,1.39a1.68,1.68,0,0,1,1.73-1.58,1.62,1.62,0,0,1,1.66,1.58Zm4.86.58a3.13,3.13,0,0,0-3.1-3.43,3.43,3.43,0,0,0,.1,6.85,3.94,3.94,0,0,0,2.67-.91l-.69-1a3.18,3.18,0,0,1-1.9.68,1.8,1.8,0,0,1-2-1.6h4.84a4.75,4.75,0,0,0,0-.54Zm6.24-1.6a4.16,4.16,0,0,0-2-.56c-.78,0-1.25.29-1.25.76s.49.56,1.11.65l.67.09c1.42.21,2.28.81,2.28,1.95s-1.1,2.13-3,2.13a4.75,4.75,0,0,1-2.83-.84l.67-1.11a3.49,3.49,0,0,0,2.18.68c1,0,1.48-.28,1.48-.79s-.37-.57-1.14-.68l-.67-.1c-1.46-.2-2.26-.86-2.26-1.92,0-1.3,1.07-2.09,2.72-2.09a4.86,4.86,0,0,1,2.66.68l-.61,1.15Zm17.51-.48a2.18,2.18,0,0,0-.82.15,1.94,1.94,0,0,0-.65.43,2.2,2.2,0,0,0-.43.67,2.3,2.3,0,0,0-.16.85,2.34,2.34,0,0,0,.16.85,2,2,0,0,0,.43.66,2,2,0,0,0,.65.44,2.29,2.29,0,0,0,1.63,0,2,2,0,0,0,.65-.44,1.91,1.91,0,0,0,.44-.66,2.34,2.34,0,0,0,.16-.85,2.3,2.3,0,0,0-.16-.85,2.05,2.05,0,0,0-.44-.67,1.94,1.94,0,0,0-.65-.43,2.16,2.16,0,0,0-.81-.15Zm0-1.35a3.79,3.79,0,0,1,1.4.26,3.45,3.45,0,0,1,1.12.73,3.29,3.29,0,0,1,.74,1.09,3.61,3.61,0,0,1,0,2.74,3.31,3.31,0,0,1-1.86,1.81,3.79,3.79,0,0,1-2.81,0,3.23,3.23,0,0,1-1.11-.72,3.29,3.29,0,0,1-.74-1.09,3.61,3.61,0,0,1,0-2.74,3.29,3.29,0,0,1,.74-1.09,3.4,3.4,0,0,1,1.11-.73,3.8,3.8,0,0,1,1.41-.26Zm-36.9,3.43a2,2,0,1,1,2,2.08,2,2,0,0,1-2-2.08Zm5.28,0v-3.27h-1.42v.8a2.46,2.46,0,0,0-2.06-1,3.43,3.43,0,0,0,0,6.85,2.49,2.49,0,0,0,2.06-.95v.79h1.42Zm-8,3.26v-4.1A2.42,2.42,0,0,0,191,279a2.54,2.54,0,0,0-2.29,1.16,2.4,2.4,0,0,0-2.16-1.16,2.16,2.16,0,0,0-1.91,1v-.81h-1.42v6.53h1.44V282a1.52,1.52,0,0,1,1.59-1.73c.95,0,1.42.61,1.42,1.72v3.63h1.44V282a1.53,1.53,0,0,1,1.59-1.73c1,0,1.44.61,1.44,1.72v3.63Z"/></g></g></g></svg>