<svg id="Calque_1" data-name="Calque 1" xmlns="http://www.w3.org/2000/svg" viewBox="0 0 20 20"><path d="M19.76,16.26,11.64,1.85A1.9,1.9,0,0,0,9,1.17a1.85,1.85,0,0,0-.68.68L.24,16.26A1.92,1.92,0,0,0,1,18.86a1.86,1.86,0,0,0,.9.24H18.06a1.93,1.93,0,0,0,1.7-2.84Zm-17.88.95L10,2.79l8.12,14.42Z"/><path d="M8.68,9.4l.5,3.34a.81.81,0,0,0,.82.69h0a.86.86,0,0,0,.82-.69l.5-3.34a1.29,1.29,0,0,0-1.07-1.49,1.06,1.06,0,0,0-.25,0h0A1.34,1.34,0,0,0,8.67,9.24.86.86,0,0,0,8.68,9.4Z"/><circle cx="10" cy="14.88" r="0.76"/></svg>