<svg id="Calque_1" data-name="Calque 1" xmlns="http://www.w3.org/2000/svg" viewBox="0 0 20 20"><path d="M16.79,5.09A.32.32,0,0,0,16.56,5h-3l-.68-1.63a1.31,1.31,0,0,0-.53-.61,1.4,1.4,0,0,0-.77-.26H8.44a1.4,1.4,0,0,0-.77.26,1.31,1.31,0,0,0-.53.61L6.46,5h-3a.32.32,0,0,0-.23.09.35.35,0,0,0-.08.22v.63a.35.35,0,0,0,.08.22.32.32,0,0,0,.23.09H4.4v9.3a2.09,2.09,0,0,0,.46,1.38A1.33,1.33,0,0,0,6,17.5h8.12a1.38,1.38,0,0,0,1.1-.59,2.2,2.2,0,0,0,.46-1.4V6.25h.94a.32.32,0,0,0,.23-.09.35.35,0,0,0,.08-.22V5.31a.35.35,0,0,0-.08-.22ZM8.29,3.86a.25.25,0,0,1,.17-.11h3.09a.25.25,0,0,1,.17.11L12.19,5H7.81Zm6.08,11.65a1.32,1.32,0,0,1-.06.39,1.17,1.17,0,0,1-.15.27s-.08.08-.1.08H5.94l-.1-.08a1.17,1.17,0,0,1-.15-.27,1.32,1.32,0,0,1-.06-.39V6.25h8.74Z"/><path d="M7.19,14.37h.62A.4.4,0,0,0,8,14.29a.32.32,0,0,0,.09-.23V8.44A.32.32,0,0,0,8,8.21a.29.29,0,0,0-.23-.08H7.19A.29.29,0,0,0,7,8.21a.4.4,0,0,0-.08.23v5.62a.28.28,0,0,0,.25.31Z"/><path d="M9.69,14.37h.62a.4.4,0,0,0,.23-.08.29.29,0,0,0,.08-.23V8.44a.28.28,0,0,0-.25-.31H9.69a.28.28,0,0,0-.31.25v5.68a.29.29,0,0,0,.08.23.4.4,0,0,0,.23.08Z"/><path d="M12.19,14.37h.62a.28.28,0,0,0,.31-.25V8.44A.4.4,0,0,0,13,8.21a.29.29,0,0,0-.23-.08h-.62a.29.29,0,0,0-.23.08.32.32,0,0,0-.09.23v5.62a.32.32,0,0,0,.09.23A.4.4,0,0,0,12.19,14.37Z"/></svg>