<svg id="Calque_1" data-name="Calque 1" xmlns="http://www.w3.org/2000/svg" viewBox="0 0 20 20"><path d="M1.92,7,4.21,8.59l2.92,2,.48.34.6.43c.16.11.35.23.58.36a2.5,2.5,0,0,0,.64.3,1.78,1.78,0,0,0,.56.1h0a1.78,1.78,0,0,0,.56-.1,3.73,3.73,0,0,0,.64-.3c.23-.13.42-.25.58-.36l.6-.43.48-.34L18.09,7a5.1,5.1,0,0,0,1.36-1.38A2.91,2.91,0,0,0,20,3.94a1.81,1.81,0,0,0-1.79-1.79H1.79a1.62,1.62,0,0,0-1.33.58A2.24,2.24,0,0,0,0,4.18,2.62,2.62,0,0,0,.61,5.71,5.94,5.94,0,0,0,1.92,7Z"/><path d="M18.88,8.18c-2.44,1.65-4.29,2.94-5.55,3.85l-1,.73a6,6,0,0,1-1,.54,3.28,3.28,0,0,1-1.23.27h0a3.28,3.28,0,0,1-1.23-.27,6,6,0,0,1-1-.54,11.94,11.94,0,0,1-1-.73q-1.5-1.11-5.54-3.85a5.67,5.67,0,0,1-1.13-1V16A1.79,1.79,0,0,0,2,17.83H18.21a1.77,1.77,0,0,0,1.27-.53A1.71,1.71,0,0,0,20,16V7.18A5.9,5.9,0,0,1,18.88,8.18Z"/></svg>