<svg id="Calque_1" data-name="Calque 1" xmlns="http://www.w3.org/2000/svg" viewBox="0 0 20 20"><path d="M19.88,7.2a.39.39,0,0,0-.3-.12H13.85a2.78,2.78,0,0,0,2.07-.85,2.81,2.81,0,0,0,.85-2.06,2.78,2.78,0,0,0-.85-2.07,2.78,2.78,0,0,0-2.07-.85,2.62,2.62,0,0,0-2.18,1L10,4.4,8.33,2.25a2.62,2.62,0,0,0-2.18-1,2.78,2.78,0,0,0-2.07.85,2.78,2.78,0,0,0-.85,2.07,2.81,2.81,0,0,0,.85,2.06,2.78,2.78,0,0,0,2.07.85H.42a.41.41,0,0,0-.42.4v4.19a.42.42,0,0,0,.12.3.46.46,0,0,0,.3.11H1.67V17.5a1.25,1.25,0,0,0,1.25,1.25H17.08a1.25,1.25,0,0,0,1.25-1.25V12.08h1.25a.39.39,0,0,0,.42-.36V7.5A.42.42,0,0,0,19.88,7.2ZM13,3.32a1.1,1.1,0,0,1,.89-.4A1.23,1.23,0,0,1,15.1,4.17h0a1.17,1.17,0,0,1-.36.88,1.19,1.19,0,0,1-.89.37H11.33ZM6.19,5.42a1.19,1.19,0,0,1-.89-.37,1.17,1.17,0,0,1-.36-.88A1.23,1.23,0,0,1,6.15,2.92h0a1.1,1.1,0,0,1,.89.4l1.64,2.1Zm5.93,4.16v6.83a.61.61,0,0,1-.23.5,1,1,0,0,1-.6.17H8.79a1,1,0,0,1-.6-.17.61.61,0,0,1-.23-.5V7.08h4.16Z"/></svg>