<svg id="Calque_1" data-name="Calque 1" xmlns="http://www.w3.org/2000/svg" viewBox="0 0 20 20"><path d="M5.1,3.4h9.8a1.71,1.71,0,0,1,1.7,1.7v9.8a1.71,1.71,0,0,1-1.7,1.7H5.1a1.71,1.71,0,0,1-1.7-1.7V5.1A1.71,1.71,0,0,1,5.1,3.4ZM13,4.87a.59.59,0,0,0-.59.59V6.89a.59.59,0,0,0,.59.59H14.5a.59.59,0,0,0,.59-.59h0V5.46a.59.59,0,0,0-.59-.59ZM15.1,9H13.94a3.6,3.6,0,0,1,.17,1.13,4.1,4.1,0,0,1-8.2,0A3.92,3.92,0,0,1,6.08,9H4.87v5.57a.52.52,0,0,0,.52.52h9.19a.52.52,0,0,0,.52-.52h0ZM10,7.4A2.57,2.57,0,1,0,12.68,10,2.62,2.62,0,0,0,10,7.4Z"/></svg>