<svg id="Calque_1" data-name="Calque 1" xmlns="http://www.w3.org/2000/svg" viewBox="0 0 20 20"><path d="M19.56,17.38l-4.13-4.12a8.17,8.17,0,0,0,1.49-4.8,8.44,8.44,0,0,0-.66-3.29,8.66,8.66,0,0,0-1.81-2.7A8.58,8.58,0,0,0,8.45,0,8.27,8.27,0,0,0,5.16.67a8.27,8.27,0,0,0-4.5,4.5,8.44,8.44,0,0,0,0,6.58,8.35,8.35,0,0,0,1.8,2.7,8.66,8.66,0,0,0,2.7,1.81,8.44,8.44,0,0,0,3.29.66,8.17,8.17,0,0,0,4.8-1.49l4.12,4.11a1.43,1.43,0,0,0,1.08.46A1.57,1.57,0,0,0,20,18.46,1.48,1.48,0,0,0,19.56,17.38Zm-7.29-5.11A5.39,5.39,0,0,1,3.08,8.46a5.17,5.17,0,0,1,1.58-3.8,5.37,5.37,0,0,1,7.59,0l0,0a5.17,5.17,0,0,1,1.58,3.8A5.21,5.21,0,0,1,12.27,12.27Z"/></svg>