<svg id="Calque_1" data-name="Calque 1" xmlns="http://www.w3.org/2000/svg" viewBox="0 0 20 20"><path d="M16.51,1.62a.33.33,0,0,0-.24,0l-3,.65-1-1.45a1.5,1.5,0,0,0-.65-.49,1.33,1.33,0,0,0-.81-.08l-3,.67a1.47,1.47,0,0,0-.7.41,1.52,1.52,0,0,0-.38.72L6.41,3.79l-2.94.65a.31.31,0,0,0-.25.35v0l.14.61a.3.3,0,0,0,.13.2.33.33,0,0,0,.24,0L16.55,2.81a.35.35,0,0,0,.2-.14.33.33,0,0,0,0-.24l-.13-.6A.26.26,0,0,0,16.51,1.62ZM7.73,3.46,8,2.24a.32.32,0,0,1,.14-.14l3-.67a.32.32,0,0,1,.19.07l.7,1Z"/><path d="M14.37,6.25v9.26a1.32,1.32,0,0,1-.06.39,1.17,1.17,0,0,1-.15.27s-.08.08-.1.08H5.94l-.1-.08a.87.87,0,0,1-.14-.27,1,1,0,0,1-.07-.39V6.25H4.37v9.3a2.16,2.16,0,0,0,.47,1.38,1.33,1.33,0,0,0,1.1.57h8.12a1.4,1.4,0,0,0,1.11-.59,2.2,2.2,0,0,0,.46-1.4V6.25Z"/><path d="M8,8.22a.29.29,0,0,0-.23-.1H7.15a.29.29,0,0,0-.23.1.35.35,0,0,0-.08.22v5.62a.38.38,0,0,0,.08.23.29.29,0,0,0,.23.08h.62A.29.29,0,0,0,8,14.29a.32.32,0,0,0,.09-.23V8.44A.31.31,0,0,0,8,8.22Z"/><path d="M10.54,8.22a.29.29,0,0,0-.23-.1H9.69a.29.29,0,0,0-.23.1.31.31,0,0,0-.09.22v5.62a.32.32,0,0,0,.09.23.29.29,0,0,0,.23.08h.62a.29.29,0,0,0,.23-.08.32.32,0,0,0,.09-.23V8.44A.31.31,0,0,0,10.54,8.22Z"/><path d="M13,8.22a.26.26,0,0,0-.22-.1h-.62a.29.29,0,0,0-.23.1.35.35,0,0,0-.08.22v5.62a.38.38,0,0,0,.08.23.29.29,0,0,0,.23.08h.62a.27.27,0,0,0,.22-.08.32.32,0,0,0,.09-.23V8.44A.31.31,0,0,0,13,8.22Z"/></svg>