<svg id="Calque_1" data-name="Calque 1" xmlns="http://www.w3.org/2000/svg" viewBox="0 0 20 20"><path d="M10.05,2.74A7.26,7.26,0,0,0,7.14,16.65,6.25,6.25,0,0,1,7.27,15l.93-4A2.66,2.66,0,0,1,8,9.87C8,8.8,8.59,8,9.37,8a1,1,0,0,1,1,1.08,15,15,0,0,1-.65,2.58A1.13,1.13,0,0,0,10.52,13a1.24,1.24,0,0,0,.33,0c1.38,0,2.3-1.77,2.3-3.86a2.71,2.71,0,0,0-3-2.78,3.44,3.44,0,0,0-3.57,3.3v.17A2.11,2.11,0,0,0,7,11.34a.36.36,0,0,1,.11.4c0,.14-.12.46-.15.58a.26.26,0,0,1-.29.21l-.08,0A2.8,2.8,0,0,1,5.15,9.73c0-2.06,1.73-4.53,5.19-4.53a4.34,4.34,0,0,1,4.59,4.16c0,2.84-1.58,5-3.92,5a2.09,2.09,0,0,1-1.77-.9s-.42,1.67-.51,2A6.28,6.28,0,0,1,8,17,7.26,7.26,0,1,0,10.05,2.74Z"/></svg>