<svg id="Calque_1" data-name="Calque 1" xmlns="http://www.w3.org/2000/svg" viewBox="0 0 20 20"><defs><style>.cls-1{fill-opacity:0;}</style></defs><path class="cls-1" d="M5.24,11V9H9.05V5.24H11V9h3.81v2H11v3.81H9.1V11Z"/><path d="M15,0H5A5,5,0,0,0,0,5V15a5,5,0,0,0,5,5H15a5,5,0,0,0,5-5V5A5,5,0,0,0,15,0Zm3,15a3,3,0,0,1-3,3H5a3,3,0,0,1-3-3V5A3,3,0,0,1,5,2H15a3,3,0,0,1,3,3Z"/><polygon points="14.76 9.04 14.76 10.95 10.95 10.95 10.95 14.76 9.05 14.76 9.05 10.95 5.24 10.95 5.24 9.04 9.05 9.04 9.05 5.24 10.95 5.24 10.95 9.04 14.76 9.04"/></svg>