<svg id="Calque_1" data-name="Calque 1" xmlns="http://www.w3.org/2000/svg" viewBox="0 0 20 20"><path d="M19.77,3.33a.74.74,0,0,0-.54-.23H4.8l-.06-.31a.63.63,0,0,0-.06-.35,1.22,1.22,0,0,1-.09-.32,1.18,1.18,0,0,0-.16-.29.63.63,0,0,0-.24-.19.81.81,0,0,0-.34-.08H.77a.77.77,0,0,0,0,1.54H3.22L5.35,13l-.25.46c-.15.27-.26.51-.35.71a1.32,1.32,0,0,0-.13.48.73.73,0,0,0,.22.54.78.78,0,0,0,.54.23H17.69a.77.77,0,1,0,0-1.54H6.63a2.19,2.19,0,0,0,.29-.77,1.13,1.13,0,0,0,0-.26.55.55,0,0,0-.07-.32,1.13,1.13,0,0,1,0-.26L19.39,10.8A.75.75,0,0,0,20,10V3.87A.74.74,0,0,0,19.77,3.33Z"/><path d="M4.64,16.92a1.52,1.52,0,0,0,1.51,1.52,1.55,1.55,0,0,0,1.52-1.52,1.52,1.52,0,0,0-1.52-1.51A1.5,1.5,0,0,0,4.64,16.9Z"/><path d="M15.41,16.92a1.52,1.52,0,0,0,1.51,1.52,1.55,1.55,0,0,0,1.52-1.52,1.52,1.52,0,0,0-1.53-1.51,1.5,1.5,0,0,0-1.06.44A1.52,1.52,0,0,0,15.41,16.92Z"/></svg>