<svg id="Calque_1" data-name="Calque 1" xmlns="http://www.w3.org/2000/svg" viewBox="0 0 20 20"><path d="M.22,2.07A.71.71,0,0,0,0,2.59V14.44a1.06,1.06,0,0,0,.05.31A.5.5,0,0,0,.2,15l.19.13a.68.68,0,0,0,.28.07h.81a2.86,2.86,0,0,0,.87,2.1,2.84,2.84,0,0,0,2.09.87,2.86,2.86,0,0,0,2.1-.87,2.86,2.86,0,0,0,.87-2.1h4.44a3,3,0,0,0,5.06,2.1,2.86,2.86,0,0,0,.87-2.1h1.55a.68.68,0,0,0,.28-.07L19.8,15a.48.48,0,0,0,.15-.22,1.06,1.06,0,0,0,.05-.31.71.71,0,0,0-.22-.52.73.73,0,0,0-.52-.22v-5a2,2,0,0,0-.08-.43A1.74,1.74,0,0,0,19,8a1.46,1.46,0,0,0-.26-.34L16.45,5.34A1.66,1.66,0,0,0,15.86,5a1.56,1.56,0,0,0-.67-.15H13.33V2.59a.71.71,0,0,0-.22-.52.73.73,0,0,0-.52-.22H.74A.73.73,0,0,0,.22,2.07ZM13.77,16.23a1.46,1.46,0,1,1,2.06,0,1.42,1.42,0,0,1-1,.42A1.48,1.48,0,0,1,13.77,16.23ZM13.33,6.3h1.83a.35.35,0,0,1,.26.1l2.25,2.26a.33.33,0,0,1,.11.25v.35H13.33ZM3.4,16.23a1.48,1.48,0,1,1,2-2.2l.11.11a1.5,1.5,0,0,1,0,2.11,1.56,1.56,0,0,1-1,.42,1.44,1.44,0,0,1-1-.44Z"/></svg>