<svg id="Calque_1" data-name="Calque 1" xmlns="http://www.w3.org/2000/svg" viewBox="0 0 20 20"><path d="M16.69,5.85a5.37,5.37,0,0,1-1.58.43,2.73,2.73,0,0,0,1.21-1.52,5.51,5.51,0,0,1-1.74.67A2.75,2.75,0,0,0,9.9,7.93,7.76,7.76,0,0,1,4.24,5.07a2.74,2.74,0,0,0,.85,3.68,2.88,2.88,0,0,1-1.25-.34v0a2.75,2.75,0,0,0,2.21,2.67,2.57,2.57,0,0,1-.73.1,3.15,3.15,0,0,1-.52-.05,2.78,2.78,0,0,0,2.57,1.91A5.54,5.54,0,0,1,4,14.24a5,5,0,0,1-.67,0,7.69,7.69,0,0,0,4.21,1.23,7.75,7.75,0,0,0,7.81-7.81V7.27A5.74,5.74,0,0,0,16.69,5.85Z"/></svg>